<svg xmlns="http://www.w3.org/2000/svg" xmlns:xlink="http://www.w3.org/1999/xlink" width="678" height="566.828" viewBox="0 0 678 566.828">
  <defs>
    <clipPath id="clip-path">
      <rect id="Rectangle_29821" data-name="Rectangle 29821" width="212.164" height="209.085" fill="none"/>
    </clipPath>
    <clipPath id="clip-path-2">
      <path id="Path_137281" data-name="Path 137281" d="M228.628,45.017h2.714l.024-2.688-2.713-.025Z" transform="translate(-228.628 -42.304)" fill="none"/>
    </clipPath>
    <clipPath id="clip-path-3">
      <path id="Path_137282" data-name="Path 137282" d="M228.628,55.682h2.714l.024-2.689-2.713-.025Z" transform="translate(-228.628 -52.968)" fill="none"/>
    </clipPath>
    <clipPath id="clip-path-4">
      <path id="Path_137283" data-name="Path 137283" d="M228.628,66.346h2.714l.024-2.688-2.713-.025Z" transform="translate(-228.628 -63.633)" fill="#5886ff"/>
    </clipPath>
    <clipPath id="clip-path-8">
      <path id="Path_137313" data-name="Path 137313" d="M84.452,85.9a51.276,51.276,0,1,0,51.276-51.276A51.276,51.276,0,0,0,84.452,85.9" transform="translate(-84.452 -34.627)" fill="#ff6d24"/>
    </clipPath>
    <clipPath id="clip-path-15">
      <rect id="Rectangle_29911" data-name="Rectangle 29911" width="49.051" height="45.218" fill="none"/>
    </clipPath>
    <clipPath id="clip-path-16">
      <rect id="Rectangle_29917" data-name="Rectangle 29917" width="60.41" height="60.412" fill="none"/>
    </clipPath>
    <clipPath id="clip-path-17">
      <rect id="Rectangle_29918" data-name="Rectangle 29918" width="55.119" height="56.537" fill="none"/>
    </clipPath>
    <clipPath id="clip-path-18">
      <rect id="Rectangle_29909" data-name="Rectangle 29909" width="444.783" height="206.318" fill="none"/>
    </clipPath>
    <clipPath id="clip-path-19">
      <rect id="Rectangle_29903" data-name="Rectangle 29903" width="98.908" height="68.4" fill="none"/>
    </clipPath>
    <clipPath id="clip-path-20">
      <rect id="Rectangle_29904" data-name="Rectangle 29904" width="32.744" height="60.915" fill="none"/>
    </clipPath>
    <clipPath id="clip-path-21">
      <rect id="Rectangle_29906" data-name="Rectangle 29906" width="21.526" height="5.152" fill="none"/>
    </clipPath>
    <clipPath id="clip-path-22">
      <rect id="Rectangle_29907" data-name="Rectangle 29907" width="5.724" height="5.618" fill="#ffc5a9"/>
    </clipPath>
    <clipPath id="clip-path-23">
      <rect id="Rectangle_29912" data-name="Rectangle 29912" width="14.996" height="5.436" fill="none"/>
    </clipPath>
    <clipPath id="clip-path-24">
      <rect id="Rectangle_29916" data-name="Rectangle 29916" width="3.22" height="5.049" fill="#ffebeb"/>
    </clipPath>
    <clipPath id="clip-path-25">
      <rect id="Rectangle_29915" data-name="Rectangle 29915" width="3.22" height="5.049" fill="#fec2a5"/>
    </clipPath>
  </defs>
  <g id="Group_104921" data-name="Group 104921" transform="translate(-1106 -200.424)">
    <g id="Group_90797" data-name="Group 90797" transform="translate(3 -13.941)">
      <g id="Group_90320" data-name="Group 90320" transform="translate(-1859.773 22074.674)">
        <g id="Group_90207" data-name="Group 90207" transform="translate(3309.088 -21821.885)">
          <g id="Group_90318" data-name="Group 90318" transform="translate(0 0)">
            <path id="Path_137274" data-name="Path 137274" d="M134.808,168.433q.6-.018,1.2-.018" transform="translate(-80.188 -50.791)" fill="none" stroke="#1d325f" stroke-miterlimit="10" stroke-width="1"/>
            <path id="Path_137276" data-name="Path 137276" d="M66.692,61.667q.488.29,1.049.582" transform="translate(-66.692 -29.641)" fill="none" stroke="#1d325f" stroke-miterlimit="10" stroke-width="1"/>
            <path id="Path_137278" data-name="Path 137278" d="M216.957,134.434a11.333,11.333,0,0,0-.063,1.2" transform="translate(-96.451 -44.058)" fill="none" stroke="#1d325f" stroke-miterlimit="10" stroke-width="1"/>
            <path id="Path_137279" data-name="Path 137279" d="M223.407,84.176H185.291a4.114,4.114,0,0,1-4.114-4.114V25.841a4.113,4.113,0,0,1,4.114-4.113h38.116a4.113,4.113,0,0,1,4.114,4.113V80.062a4.114,4.114,0,0,1-4.114,4.114" transform="translate(-89.375 -21.728)" fill="#fde8de"/>
            <rect id="Rectangle_29810" data-name="Rectangle 29810" width="27.08" height="2.22" transform="translate(99.129 16.758)" fill="#5886ff"/>
            <rect id="Rectangle_29811" data-name="Rectangle 29811" width="27.08" height="2.22" transform="translate(99.129 25.309)" fill="#5886ff"/>
            <rect id="Rectangle_29812" data-name="Rectangle 29812" width="27.08" height="2.22" transform="translate(99.129 33.861)" fill="#5886ff"/>
            <rect id="Rectangle_29813" data-name="Rectangle 29813" width="27.08" height="2.22" transform="translate(99.129 42.413)" fill="#5886ff"/>
            <rect id="Rectangle_29814" data-name="Rectangle 29814" width="27.08" height="2.22" transform="translate(99.129 50.964)" fill="#5886ff"/>
          </g>
        </g>
        <rect id="Rectangle_29923" data-name="Rectangle 29923" width="8" height="46" transform="translate(3436.773 -21809.309)" fill="#ffefe7"/>
        <g id="Group_90209" data-name="Group 90209" transform="translate(3255.609 -21839.309)">
          <g id="Group_90208" data-name="Group 90208" clip-path="url(#clip-path)">
            <path id="Rectangle_29816" data-name="Rectangle 29816" d="M.969,0H3.324a.968.968,0,0,1,.968.968V3.323a.969.969,0,0,1-.969.969H.969A.969.969,0,0,1,0,3.323V.969A.969.969,0,0,1,.969,0Z" transform="translate(182.554 33.145)" fill="#ffefe7" stroke="#00030e" stroke-linecap="round" stroke-miterlimit="10" stroke-width="0.25"/>
            <path id="Path_137743" data-name="Path 137743" d="M.969,0H3.324a.968.968,0,0,1,.968.968V3.323a.969.969,0,0,1-.969.969H.969A.969.969,0,0,1,0,3.323V.969A.969.969,0,0,1,.969,0Z" transform="translate(182.554 41.697)" fill="#ffefe7" stroke="#00030e" stroke-linecap="round" stroke-width="0.25"/>
            <path id="Rectangle_29818" data-name="Rectangle 29818" d="M.969,0H3.324a.968.968,0,0,1,.968.968V3.323a.969.969,0,0,1-.969.969H.969A.969.969,0,0,1,0,3.323V.969A.969.969,0,0,1,.969,0Z" transform="translate(182.554 50.248)" fill="#ffefe7" stroke="#00030e" stroke-linecap="round" stroke-miterlimit="10" stroke-width="0.25"/>
            <path id="Rectangle_29819" data-name="Rectangle 29819" d="M.969,0H3.324a.968.968,0,0,1,.968.968V3.323a.969.969,0,0,1-.969.969H.969A.969.969,0,0,1,0,3.323V.969A.969.969,0,0,1,.969,0Z" transform="translate(182.554 58.799)" fill="#ffefe7" stroke="#00030e" stroke-linecap="round" stroke-miterlimit="10" stroke-width="0.25"/>
            <path id="Rectangle_29820" data-name="Rectangle 29820" d="M.969,0H3.324a.968.968,0,0,1,.968.968V3.323a.969.969,0,0,1-.969.969H.969A.969.969,0,0,1,0,3.323V.969A.969.969,0,0,1,.969,0Z" transform="translate(182.554 67.351)" fill="#ffefe7" stroke="#00030e" stroke-linecap="round" stroke-miterlimit="10" stroke-width="0.25"/>
          </g>
        </g>
        <g id="Group_90211" data-name="Group 90211" transform="translate(3438.939 -21805.387)">
          <g id="Group_90210" data-name="Group 90210" clip-path="url(#clip-path-2)">
            <rect id="Rectangle_29822" data-name="Rectangle 29822" width="2.738" height="2.713" fill="#ff6d24"/>
          </g>
        </g>
        <g id="Group_90213" data-name="Group 90213" transform="translate(3438.939 -21796.836)">
          <g id="Group_90212" data-name="Group 90212" clip-path="url(#clip-path-3)">
            <rect id="Rectangle_29823" data-name="Rectangle 29823" width="2.738" height="2.714" fill="#ff6d24"/>
          </g>
        </g>
        <g id="Group_90215" data-name="Group 90215" transform="translate(3438.939 -21788.281)">
          <g id="Group_90214" data-name="Group 90214" clip-path="url(#clip-path-4)">
            <rect id="Rectangle_29824" data-name="Rectangle 29824" width="2.738" height="2.713" transform="translate(0 0)" fill="#ff6d24"/>
          </g>
        </g>
        <g id="Group_90231" data-name="Group 90231" transform="translate(3323.328 -21811.543)">
          <g id="Group_90230" data-name="Group 90230" clip-path="url(#clip-path-8)">
            <path id="Path_137378" data-name="Path 137378" d="M0,0H102.553V102.553H0Z" transform="translate(0 0)" fill="#ff6d24"/>
          </g>
        </g>
        <g id="Group_90316" data-name="Group 90316" transform="translate(3329.294 -21805.576)">
          <g id="Group_90317" data-name="Group 90317" transform="translate(0 0)">
            <path id="Path_137314" data-name="Path 137314" d="M188.506,93.37a45.311,45.311,0,1,1-45.311-45.311A45.311,45.311,0,0,1,188.506,93.37" transform="translate(-97.884 -48.059)" fill="#fff"/>
            <path id="Path_137315" data-name="Path 137315" d="M149.636,58.421h-3.186a.849.849,0,0,1-.849-.85V52.288a.849.849,0,0,1,.849-.85h3.186a.85.85,0,0,1,.85.85v5.284a.85.85,0,0,1-.85.85" transform="translate(-102.733 -47.099)" fill="#ff6d24"/>
            <path id="Path_137316" data-name="Path 137316" d="M129.439,62.872l-2.759,1.593a.85.85,0,0,1-1.161-.311l-2.642-4.577a.849.849,0,0,1,.311-1.161l2.759-1.593a.849.849,0,0,1,1.16.311l2.642,4.577a.849.849,0,0,1-.311,1.161" transform="translate(-99.838 -47.768)" fill="#ff6d24"/>
            <path id="Path_137317" data-name="Path 137317" d="M114.289,76.855,112.7,79.614a.849.849,0,0,1-1.161.311l-4.576-2.642a.849.849,0,0,1-.311-1.161l1.592-2.759a.85.85,0,0,1,1.161-.311l4.577,2.642a.85.85,0,0,1,.311,1.161" transform="translate(-97.781 -49.825)" fill="#ff6d24"/>
            <path id="Path_137318" data-name="Path 137318" d="M108.245,96.626v3.186a.849.849,0,0,1-.85.849h-5.284a.849.849,0,0,1-.85-.849V96.626a.849.849,0,0,1,.85-.85H107.4a.85.85,0,0,1,.85.85" transform="translate(-97.112 -52.719)" fill="#ff6d24"/>
            <path id="Path_137319" data-name="Path 137319" d="M112.7,116.5l1.593,2.759a.85.85,0,0,1-.311,1.161l-4.577,2.642a.849.849,0,0,1-1.161-.31l-1.593-2.759a.849.849,0,0,1,.311-1.16l4.577-2.642a.849.849,0,0,1,1.161.311" transform="translate(-97.781 -55.292)" fill="#ff6d24"/>
            <path id="Path_137320" data-name="Path 137320" d="M126.68,131.539l2.759,1.593a.849.849,0,0,1,.311,1.161l-2.642,4.576a.848.848,0,0,1-1.16.311l-2.759-1.592a.849.849,0,0,1-.311-1.161l2.642-4.577a.85.85,0,0,1,1.161-.311" transform="translate(-99.838 -57.238)" fill="#ff6d24"/>
            <path id="Path_137321" data-name="Path 137321" d="M146.381,137.711h2.925a.78.78,0,0,1,.779.78v4.852a.78.78,0,0,1-.779.78h-2.925a.781.781,0,0,1-.78-.78v-4.852a.781.781,0,0,1,.78-.78" transform="translate(-102.533 -61.017)" fill="#ff6d24"/>
            <path id="Path_137322" data-name="Path 137322" d="M166.325,133.132l2.759-1.593a.85.85,0,0,1,1.161.311l2.642,4.577a.85.85,0,0,1-.311,1.161l-2.759,1.593a.85.85,0,0,1-1.161-.311l-2.642-4.577a.85.85,0,0,1,.311-1.161" transform="translate(-105.306 -57.238)" fill="#ff6d24"/>
            <path id="Path_137323" data-name="Path 137323" d="M181.364,119.26l1.593-2.759a.849.849,0,0,1,1.161-.311l4.576,2.642a.848.848,0,0,1,.311,1.16l-1.592,2.759a.849.849,0,0,1-1.161.31l-4.577-2.642a.85.85,0,0,1-.311-1.161" transform="translate(-107.252 -55.292)" fill="#ff6d24"/>
            <path id="Path_137324" data-name="Path 137324" d="M187.536,99.811V96.626a.849.849,0,0,1,.85-.849h5.284a.849.849,0,0,1,.85.849v3.186a.85.85,0,0,1-.85.85h-5.284a.85.85,0,0,1-.85-.85" transform="translate(-108.048 -52.72)" fill="#ff6d24"/>
            <path id="Path_137325" data-name="Path 137325" d="M182.956,79.614l-1.593-2.759a.85.85,0,0,1,.311-1.161l4.577-2.642a.85.85,0,0,1,1.161.311L189,76.123a.849.849,0,0,1-.311,1.16l-4.577,2.642a.849.849,0,0,1-1.161-.311" transform="translate(-107.251 -49.825)" fill="#ff6d24"/>
            <path id="Path_137326" data-name="Path 137326" d="M169.084,64.464l-2.759-1.593a.849.849,0,0,1-.311-1.161l2.642-4.577a.849.849,0,0,1,1.161-.31l2.759,1.592a.85.85,0,0,1,.311,1.161l-2.642,4.577a.85.85,0,0,1-1.161.311" transform="translate(-105.306 -47.768)" fill="#ff6d24"/>
            <path id="Path_137329" data-name="Path 137329" d="M148.185,58.19c1.341,6.358,4.605,27.04.057,37.579a.61.61,0,0,1-1.118,0c-4.548-10.539-1.284-31.221.057-37.579a.513.513,0,0,1,1,0" transform="translate(-102.372 -45.18)" fill="#1e5bfa"/>
            <path id="Path_137330" data-name="Path 137330" d="M117.209,97.634c4.911-1.035,22.4-3.557,30.538-.044a.472.472,0,0,1,0,.864c-8.14,3.513-25.628.991-30.538-.044a.4.4,0,0,1,0-.775" transform="translate(-96.845 -52.71)" fill="#1e5bfa"/>
          </g>
        </g>
      </g>
      <g id="Group_90780" data-name="Group 90780">
        <g id="Group_90360" data-name="Group 90360" transform="translate(50 53.365)">
          <g id="Group_90417" data-name="Group 90417" transform="translate(-16 -26)">
            <text id="Automated_Time_tracking" data-name="Automated 
Time tracking" transform="translate(1254 267.918)" fill="#03091a" font-size="24" font-family="EncodeSans-Regular, Encode Sans"><tspan x="-62.646" y="0">Automated </tspan><tspan x="-71.7" y="30">Time tracking</tspan></text>
            <g id="Group_90338" data-name="Group 90338" transform="translate(1229 187)" clip-path="url(#clip-path-15)">
              <path id="Path_137744" data-name="Path 137744" d="M0,113.471a17.609,17.609,0,1,1,17.58,17.594A17.564,17.564,0,0,1,0,113.471M17.658,98.409A15.072,15.072,0,1,0,32.7,113.543,15.107,15.107,0,0,0,17.658,98.409" transform="translate(0 -85.848)" fill="#ff6d24"/>
              <path id="Path_137745" data-name="Path 137745" d="M122.25,0c1.378,0,2.756,0,4.134,0a1.1,1.1,0,0,1,1.21,1.143c.031.9.03,1.812,0,2.717a1.11,1.11,0,0,1-1.245,1.162q-4.082,0-8.164,0a1.12,1.12,0,0,1-1.265-1.2c-.023-.87-.021-1.742,0-2.613A1.121,1.121,0,0,1,118.168,0q2.041,0,4.082,0" transform="translate(-104.65 0)" fill="#1e5bfa"/>
              <path id="Path_137746" data-name="Path 137746" d="M263.442,49.168H253.17c-.122,0-.245,0-.367,0-.41-.005-.687-.2-.695-.616s.257-.624.67-.638c.087,0,.175,0,.262,0h20.753a2.465,2.465,0,0,1,.366.007c.359.055.625.283.548.628-.052.232-.319.44-.533.6-.1.076-.3.02-.462.02H263.442" transform="translate(-225.682 -42.887)" fill="#1e5bfa"/>
              <path id="Path_137747" data-name="Path 137747" d="M320.265,143.779q3.695,0,7.389,0c.5,0,.807.25.775.642-.037.451-.33.622-.756.612-.122,0-.245,0-.367,0H313.1c-.122,0-.245,0-.367,0a.625.625,0,1,1-.019-1.25c.139-.011.279,0,.419,0h7.127" transform="translate(-279.383 -128.706)" fill="#1e5bfa"/>
              <path id="Path_137748" data-name="Path 137748" d="M360,264.876c-1.729,0-3.459,0-5.188,0-.422,0-.726-.141-.779-.591-.046-.391.262-.662.751-.664,1.45-.006,2.9,0,4.35,0H365c.677,0,.958.179.967.613s-.3.642-.992.642H360" transform="translate(-316.916 -235.987)" fill="#1e5bfa"/>
              <rect id="Rectangle_29910" data-name="Rectangle 29910" width="4.984" height="2.551" transform="translate(15.115 6.311)" fill="#ff6d24"/>
              <path id="Path_137749" data-name="Path 137749" d="M315.822,83.879c.978,0,1.956,0,2.934,0,.549,0,.862.235.829.641-.039.485-.366.618-.806.617q-2.961-.009-5.921,0c-.441,0-.767-.134-.8-.62-.03-.406.281-.635.832-.637.978,0,1.956,0,2.934,0" transform="translate(-279.344 -75.086)" fill="#1e5bfa"/>
              <path id="Path_137750" data-name="Path 137750" d="M345.8,204.965c-.961,0-1.921,0-2.882,0-.6,0-.9-.22-.888-.64s.293-.613.86-.614q2.908,0,5.817,0c.568,0,.853.208.862.613.009.42-.291.64-.887.642-.961,0-1.921,0-2.882,0" transform="translate(-306.176 -182.356)" fill="#1e5bfa"/>
              <path id="Path_137751" data-name="Path 137751" d="M39.14,119.835A15.072,15.072,0,1,1,24,134.87,15.11,15.11,0,0,1,39.14,119.835m13.787,15.076a13.853,13.853,0,1,0-14.684,13.825,13.837,13.837,0,0,0,14.684-13.825" transform="translate(-21.481 -107.274)" fill="#fff"/>
              <path id="Path_137752" data-name="Path 137752" d="M63.436,145.431a13.854,13.854,0,1,1-12.942-13.822,13.863,13.863,0,0,1,12.942,13.822m-13.207,1.544v-1.324q0-5.911,0-11.822c0-.573-.235-.933-.609-.951-.391-.019-.645.358-.648.963v.052q0,7.193,0,14.385c0,.122-.042.272.013.36.128.205.272.469.47.542.166.06.441-.083.626-.2a2.107,2.107,0,0,0,.421-.461q1.953-2.347,3.9-4.7c1.248-1.5,2.514-2.977,3.737-4.493a.96.96,0,0,0,.055-.8c-.048-.13-.418-.207-.632-.188-.153.014-.309.209-.429.353q-2.463,2.942-4.915,5.892l-1.993,2.389" transform="translate(-31.99 -117.793)" fill="#fec2a5"/>
              <path id="Path_137753" data-name="Path 137753" d="M163.121,158l1.993-2.389q2.456-2.947,4.915-5.892c.12-.143.276-.339.429-.353.214-.019.584.058.632.188a.96.96,0,0,1-.055.8c-1.223,1.516-2.489,3-3.737,4.493q-1.956,2.344-3.9,4.7a2.108,2.108,0,0,1-.421.461c-.185.118-.46.261-.626.2-.2-.072-.342-.336-.47-.542-.055-.089-.013-.238-.013-.36q0-7.193,0-14.385v-.052c0-.6.258-.982.648-.963.375.018.609.378.609.951q0,5.911,0,11.822Z" transform="translate(-144.882 -128.815)" fill="#1e5bfa"/>
            </g>
          </g>
        </g>
        <g id="Group_90361" data-name="Group 90361" transform="translate(0 94.971)">
          <text id="Automated_timesheets" data-name="Automated 
timesheets" transform="translate(1718 282.623)" fill="#03091a" font-size="24" font-family="EncodeSans-Regular, Encode Sans"><tspan x="-62.646" y="0">Automated </tspan><tspan x="-57.948" y="30">timesheets</tspan></text>
          <g id="Group_90355" data-name="Group 90355" transform="translate(1685.012 187)">
            <g id="Group_90354" data-name="Group 90354" clip-path="url(#clip-path-16)">
              <path id="Path_137833" data-name="Path 137833" d="M31.168,30.95v3.7H51.345c1.052,0,1.308.258,1.309,1.318,0,1.207,0,2.413,0,3.679h.61c1.47,0,2.941-.01,4.411,0a2.7,2.7,0,0,1,2.722,2.7q.025,7.681,0,15.361A2.688,2.688,0,0,1,57.718,60.4q-5.942.032-11.884,0a2.7,2.7,0,0,1-2.689-2.569c-.012-.172-.011-.346-.011-.519q0-7.291,0-14.583A2.755,2.755,0,0,1,46.2,39.646h4.636V36.571H31.175v3.074h.53c1.418,0,2.837,0,4.255,0a2.718,2.718,0,0,1,2.833,2.8q.021,7.577,0,15.153a2.728,2.728,0,0,1-2.839,2.8q-5.76.011-11.521,0a2.754,2.754,0,0,1-2.918-2.935q-.008-7.447,0-14.894a4.036,4.036,0,0,1,.049-.619,2.687,2.687,0,0,1,2.657-2.307c1.47-.014,2.941,0,4.411,0h.6v-3.07H9.578v3.07h.567c1.488,0,2.976-.013,4.463.005a2.693,2.693,0,0,1,2.646,2.494c.009.1.015.207.015.311,0,5.051.011,10.1-.005,15.153A2.7,2.7,0,0,1,14.428,60.4q-5.786.01-11.573,0A2.735,2.735,0,0,1,0,57.563Q0,50.012,0,42.461A2.719,2.719,0,0,1,2.82,39.647c1.436-.007,2.872,0,4.307,0h.624c0-.579,0-1.11,0-1.642,0-.727-.01-1.453,0-2.18a.909.909,0,0,1,.96-.99c.172-.011.346,0,.519,0h20.1V31.143c-.232,0-.45,0-.668,0-.736,0-.958-.176-1.174-.9-.162-.546-.3-1.1-.5-1.634a.939.939,0,0,0-.445-.473c-.813-.376-1.64-.725-2.474-1.053a.837.837,0,0,0-.6.007c-.561.266-1.1.578-1.644.88a1.009,1.009,0,0,1-1.319-.192c-.833-.83-1.669-1.658-2.494-2.5a.987.987,0,0,1-.184-1.357c.291-.55.609-1.086.878-1.646a.766.766,0,0,0,0-.552c-.339-.848-.695-1.689-1.075-2.519a.859.859,0,0,0-.44-.414c-.568-.2-1.156-.351-1.735-.524a.949.949,0,0,1-.825-1.079q-.006-1.661,0-3.321a.936.936,0,0,1,.78-1.061,5.592,5.592,0,0,0,1.995-.647c.463-.4.566-1.216.829-1.848a1.094,1.094,0,0,1,.131-.281c.575-.7.365-1.32-.056-2.035-.923-1.567-1.035-1.523.4-2.914.572-.554,1.123-1.128,1.691-1.685A.981.981,0,0,1,21.761,3.2c.535.282,1.053.6,1.6.851a.9.9,0,0,0,.638,0c.834-.326,1.659-.679,2.473-1.052a.852.852,0,0,0,.418-.432c.207-.585.356-1.19.536-1.785A.947.947,0,0,1,28.488,0C29.63,0,30.771.01,31.913,0a.886.886,0,0,1,1,.763,4.6,4.6,0,0,0,.605,1.9c.376.439,1.144.543,1.74.795a.9.9,0,0,1,.235.107c.83.7,1.574.42,2.4-.081,1.383-.836,1.41-.791,2.543.343.636.636,1.274,1.27,1.907,1.91a.977.977,0,0,1,.213,1.423c-.288.532-.776,1.052-.808,1.6-.03.527.419,1.077.642,1.624a7.223,7.223,0,0,1,.417,1.169.712.712,0,0,0,.614.588c.568.148,1.126.333,1.692.489a.929.929,0,0,1,.757.976q.006,1.738,0,3.477a.939.939,0,0,1-.76.978c-.6.17-1.2.324-1.786.534a.927.927,0,0,0-.469.448c-.376.814-.726,1.64-1.054,2.474a.832.832,0,0,0,0,.6c.266.561.575,1.1.881,1.644a1.006,1.006,0,0,1-.185,1.32c-.828.835-1.657,1.67-2.5,2.5a1,1,0,0,1-1.362.192c-.55-.291-1.085-.61-1.646-.878a.777.777,0,0,0-.559,0c-.849.336-1.691.69-2.521,1.069a.865.865,0,0,0-.408.446c-.19.518-.328,1.055-.483,1.585-.243.829-.42.963-1.28.966h-.579m-1-9.358a6.017,6.017,0,0,0,6.146-6.131,6.1,6.1,0,1,0-6.146,6.131M8.653,55.862c1,0,2,0,3,0,.7,0,1.077-.322,1.093-.9a.973.973,0,0,0-1.09-.981q-3.03-.008-6.06,0c-.69,0-1.052.333-1.052.933s.383.941,1.049.946c1.019.008,2.037,0,3.056,0m.014-5c1,0,2,0,3,0,.682,0,1.071-.339,1.079-.916s-.423-.959-1.1-.96q-3.03-.005-6.06,0c-.691,0-1.045.331-1.038.939.007.577.4.932,1.063.936,1.019.006,2.037,0,3.056,0m21.643-4.8c.984,0,1.969.022,2.952-.014a1.189,1.189,0,0,0,.825-.3,1.112,1.112,0,0,0,.175-.932,1.209,1.209,0,0,0-.788-.606,9.146,9.146,0,0,0-1.652-.037c-1.554,0-3.108-.007-4.662,0-.659,0-1.008.344-1.009.921a.953.953,0,0,0,1,.965c.12.007.242,0,.363,0h2.8m-.068,4.8c1,0,2.006,0,3.01,0,.685,0,1.117-.384,1.1-.96-.013-.556-.432-.914-1.095-.915q-3.01-.006-6.019,0c-.709,0-1.074.308-1.088.9s.394.975,1.08.979c1,.006,2.007,0,3.01,0M8.668,44.176v0c-1.036,0-2.072-.009-3.107,0-.669.008-1.009.33-1.013.914a.923.923,0,0,0,.987.969c2.089.014,4.178.01,6.266,0a.87.87,0,0,0,.865-.545.937.937,0,0,0-.891-1.332c-1.035-.026-2.071-.006-3.107-.006m43.1,11.687c1,0,2.006,0,3.009,0,.68,0,1.072-.345,1.08-.919.008-.59-.4-.959-1.1-.96q-3.009-.006-6.019,0c-.68,0-1.073.344-1.083.919s.42.957,1.1.961c1,.006,2.006,0,3.009,0m-.047-9.893c1.055,0,2.11.013,3.165-.005a.925.925,0,0,0,.971-.935.878.878,0,0,0-.9-.935c-2.144-.015-4.289-.01-6.433,0a.827.827,0,0,0-.854.753.964.964,0,0,0,1.041,1.121c1,.013,2.006,0,3.009,0M30.249,55.862c1,0,2.006,0,3.01,0,.668,0,1.084-.357,1.1-.912.013-.577-.419-.966-1.1-.967q-3.01-.007-6.019,0c-.7,0-1.07.325-1.081.911s.392.964,1.087.968c1,.006,2.006,0,3.01,0m21.523-5c.986,0,1.972,0,2.957,0,.715,0,1.122-.34,1.129-.926s-.4-.948-1.1-.95q-3.009,0-6.018,0c-.684,0-1.073.338-1.08.915s.424.957,1.107.961c1,0,2.006,0,3.009,0" transform="translate(0 0)" fill="#1e5bfa"/>
              <path id="Path_137834" data-name="Path 137834" d="M48.57,124.779c-.7-.1-1.3-.181-1.891-.277s-.964-.5-.908-.994a.925.925,0,0,1,1.134-.786q2.053.286,4.1.622a.957.957,0,0,1,.881,1.173q-.289,2.1-.636,4.2a.915.915,0,0,1-1.118.751.867.867,0,0,1-.757-1c.064-.681.16-1.358.26-2.177-.34.3-.589.509-.816.736A9.712,9.712,0,0,0,47.78,139.52c.08.113.171.219.243.336a.989.989,0,0,1-.2,1.346.976.976,0,0,1-1.333-.262,11,11,0,0,1-2.057-4.374,11.409,11.409,0,0,1,3.4-11.113c.208-.2.43-.394.737-.673" transform="translate(-39.542 -109.953)" fill="#ff6d24"/>
              <path id="Path_137835" data-name="Path 137835" d="M467.18,126.238c.093.759.2,1.4.244,2.046.055.745-.481,1.256-1.147,1.062a.968.968,0,0,1-.6-.592c-.256-1.375-.455-2.76-.646-4.146-.117-.848.147-1.156,1-1.284,1.264-.19,2.527-.385,3.791-.577.1-.016.206-.027.309-.034a.943.943,0,0,1,1.09.789.925.925,0,0,1-.848.992c-.611.1-1.226.18-1.911.279.117.131.182.218.261.289a11.709,11.709,0,0,1,1.73,15.6c-.419.579-1.022.77-1.459.461a1.06,1.06,0,0,1-.072-1.557,9.811,9.811,0,0,0-1.3-12.965c-.109-.1-.231-.188-.444-.359" transform="translate(-416.671 -109.952)" fill="#ff6d24"/>
              <path id="Path_137836" data-name="Path 137836" d="M47.855,521.149c-1.019,0-2.037.006-3.056,0-.666-.005-1.049-.36-1.049-.946s.362-.931,1.052-.933q3.03-.008,6.06,0a.973.973,0,0,1,1.09.981c-.016.576-.4.894-1.093.9-1,.005-2,0-3,0" transform="translate(-39.202 -465.287)" fill="#fde8de"/>
              <path id="Path_137837" data-name="Path 137837" d="M47.869,473.124c-1.019,0-2.037,0-3.056,0-.662,0-1.057-.359-1.063-.936-.007-.607.347-.937,1.038-.939q3.03-.007,6.06,0c.681,0,1.112.384,1.1.96s-.4.912-1.079.916c-1,0-2,0-3,0" transform="translate(-39.202 -422.259)" fill="#fde8de"/>
              <path id="Path_137838" data-name="Path 137838" d="M255.738,426.67h-2.8c-.121,0-.242,0-.363,0a.952.952,0,0,1-1-.966c0-.577.351-.916,1.009-.921,1.554-.012,3.108-.005,4.662,0a9.152,9.152,0,0,1,1.652.037,1.209,1.209,0,0,1,.788.606,1.112,1.112,0,0,1-.175.932,1.19,1.19,0,0,1-.826.3c-.983.036-1.968.014-2.952.014" transform="translate(-225.428 -380.603)" fill="#fde8de"/>
              <path id="Path_137839" data-name="Path 137839" d="M255.671,473.127c-1,0-2.007,0-3.01,0-.686,0-1.094-.381-1.08-.979s.379-.9,1.088-.9q3.01,0,6.019,0c.663,0,1.082.359,1.095.915.014.576-.418.957-1.1.96-1,0-2.006,0-3.01,0" transform="translate(-225.43 -422.262)" fill="#fde8de"/>
              <path id="Path_137840" data-name="Path 137840" d="M47.866,424.909c1.036,0,2.072-.019,3.107.006a.937.937,0,0,1,.891,1.332.87.87,0,0,1-.865.545c-2.089.009-4.178.014-6.266,0a.923.923,0,0,1-.987-.968c0-.584.343-.906,1.013-.914,1.036-.013,2.072,0,3.107,0Z" transform="translate(-39.198 -380.734)" fill="#fde8de"/>
              <path id="Path_137841" data-name="Path 137841" d="M462.565,521.152c-1,0-2.006,0-3.009,0-.684,0-1.114-.385-1.1-.961s.4-.917,1.083-.919q3.009-.007,6.019,0c.7,0,1.108.37,1.1.96-.008.574-.4.915-1.08.919-1,.006-2.006,0-3.009,0" transform="translate(-410.796 -465.29)" fill="#fde8de"/>
              <path id="Path_137842" data-name="Path 137842" d="M462.494,425.98c-1,0-2.006.01-3.009,0a.964.964,0,0,1-1.041-1.121.827.827,0,0,1,.854-.753c2.144-.009,4.289-.014,6.433,0a.878.878,0,0,1,.9.936.925.925,0,0,1-.97.934c-1.055.019-2.11.005-3.165.006" transform="translate(-410.772 -380.01)" fill="#fde8de"/>
              <path id="Path_137843" data-name="Path 137843" d="M255.679,521.152c-1,0-2.006,0-3.01,0-.694,0-1.1-.371-1.087-.968s.385-.91,1.081-.911q3.009-.006,6.019,0c.683,0,1.115.39,1.1.967-.013.556-.429.909-1.1.912-1,.006-2.006,0-3.01,0" transform="translate(-225.431 -465.29)" fill="#fde8de"/>
              <path id="Path_137844" data-name="Path 137844" d="M462.568,473.127c-1,0-2.006,0-3.009,0-.683,0-1.114-.383-1.107-.961s.4-.914,1.08-.915q3.009-.005,6.018,0c.7,0,1.11.357,1.1.95s-.414.924-1.129.926c-.986,0-1.972,0-2.957,0" transform="translate(-410.796 -422.262)" fill="#fde8de"/>
            </g>
          </g>
        </g>
        <g id="Group_90359" data-name="Group 90359" transform="translate(39 -19.695)">
          <text id="Realtime_status" data-name="Realtime status" transform="translate(1064 699)" fill="#03091a" font-size="24" font-family="EncodeSans-Regular, Encode Sans"><tspan x="0" y="0">Realtime status</tspan></text>
          <g id="Group_90358" data-name="Group 90358" transform="translate(1118.44 607.35)">
            <g id="Group_90357" data-name="Group 90357" clip-path="url(#clip-path-17)">
              <path id="Path_137845" data-name="Path 137845" d="M106.908,0a23.989,23.989,0,0,1,2.709.558c5.5,1.787,8.823,5.536,9.628,11.269A13.535,13.535,0,1,1,104,.119c.246-.035.491-.079.736-.119Z" transform="translate(-83.582)" fill="#ff6d24"/>
              <path id="Path_137846" data-name="Path 137846" d="M32.14,334.834A12.395,12.395,0,0,0,44.477,351.1c0,2.393.034,4.759-.019,7.123a1.457,1.457,0,0,1-1.516,1.332c-.125,0-.251,0-.377,0H1.961c-1.414,0-1.953-.541-1.951-1.97,0-2.7-.04-5.4.027-8.1A15.335,15.335,0,0,1,12.7,334.861a17.411,17.411,0,0,1,2.854-.258q6.806-.039,13.613,0c.966.005,1.932.147,2.971.232" transform="translate(0 -303.016)" fill="#1e5bfa"/>
              <path id="Path_137847" data-name="Path 137847" d="M369.7,262.967a10.63,10.63,0,1,1-10.627,10.59,10.63,10.63,0,0,1,10.627-10.59m-1.07,12.448c-.122-.139-.226-.252-.323-.371-.773-.949-1.54-1.9-2.317-2.848a1.511,1.511,0,1,0-2.346,1.9q1.931,2.4,3.89,4.784a1.488,1.488,0,0,0,2.5-.127q2.912-4.307,5.793-8.634a1.89,1.89,0,0,0,.29-.827,1.463,1.463,0,0,0-.992-1.494,1.5,1.5,0,0,0-1.8.646q-2.2,3.257-4.381,6.522c-.095.141-.2.279-.316.451" transform="translate(-325.191 -238.156)" fill="#1e5bfa"/>
              <path id="Path_137848" data-name="Path 137848" d="M408.8,320.882c.121-.172.221-.31.316-.451q2.19-3.261,4.381-6.522a1.5,1.5,0,0,1,1.8-.646,1.463,1.463,0,0,1,.992,1.494,1.891,1.891,0,0,1-.29.827q-2.881,4.328-5.793,8.634a1.488,1.488,0,0,1-2.5.127q-1.963-2.377-3.89-4.784a1.511,1.511,0,1,1,2.346-1.9c.778.945,1.544,1.9,2.317,2.848.1.119.2.232.323.371" transform="translate(-365.362 -283.623)" fill="#fde8de"/>
            </g>
          </g>
        </g>
        <g id="Group_90365" data-name="Group 90365" transform="translate(15.608 18.193)">
          <text id="Fully_Customizable_Settings" data-name="Fully Customizable 
Settings" transform="translate(1434 727)" fill="#03091a" font-size="24" font-family="EncodeSans-Regular, Encode Sans"><tspan x="-101.184" y="0">Fully Customizable </tspan><tspan x="-43.11" y="30">Settings</tspan></text>
          <g id="Group_90363" data-name="Group 90363" transform="translate(1403.628 643.223)">
            <g id="Group_90364" data-name="Group 90364">
              <path id="Path_137849" data-name="Path 137849" d="M8.607,42.234,5.255,38.88l.936-1.621C6.7,36.375,7.22,35.5,7.714,34.6a.5.5,0,0,0-.015-.439,16.3,16.3,0,0,1-2.62-6.344.516.516,0,0,0-.47-.473c-1.447-.326-2.888-.679-4.331-1.024C.189,26.3.1,26.268,0,26.236V21.472L3.042,20.6c.56-.16,1.126-.3,1.677-.491a.586.586,0,0,0,.334-.357,19.28,19.28,0,0,1,2.658-6.386.433.433,0,0,0,0-.531c-.822-1.406-1.635-2.817-2.43-4.189l3.361-3.36c.057.034.17.1.279.165q1.968,1.241,3.933,2.486a.383.383,0,0,0,.492.027,23.5,23.5,0,0,1,6.607-2.87.513.513,0,0,0,.421-.438C20.728,3.1,21.1,1.561,21.474,0h4.779c.208.9.42,1.815.628,2.728.165.723.337,1.445.483,2.172a.446.446,0,0,0,.4.406,18.8,18.8,0,0,1,6.352,2.63.435.435,0,0,0,.531.01c1.406-.825,2.818-1.638,4.189-2.432L42.206,8.89c-.026.046-.094.169-.165.29-.75,1.3-1.5,2.594-2.254,3.887a.406.406,0,0,0,.006.525,15.925,15.925,0,0,1,2.618,6.3.512.512,0,0,0,.459.481c1.618.35,3.229.727,4.859,1.1v4.78l-2.348.513c-.789.172-1.591.3-2.365.529a4.567,4.567,0,0,1-2.349-.076q-2.539-.573-5.079-1.142a1.611,1.611,0,0,1-.2-.07,12.032,12.032,0,0,0-7.55-13.312,11.967,11.967,0,0,0-14.2,4.55,12.134,12.134,0,0,0,1.5,15.086,12.3,12.3,0,0,0,16.137.869l1.9,7.367c-.128.077-.248.156-.373.223a20.05,20.05,0,0,1-5.015,1.856.487.487,0,0,0-.426.427c-.356,1.548-.731,3.092-1.109,4.675h-1.71c-.9,0-1.8-.012-2.706.007a.381.381,0,0,1-.455-.346c-.4-1.537-.839-3.066-1.246-4.6a.47.47,0,0,0-.417-.391,18.762,18.762,0,0,1-6.283-2.593.541.541,0,0,0-.669,0c-1.379.815-2.77,1.611-4.16,2.415" fill="#1e5bfa"/>
              <path id="Path_137850" data-name="Path 137850" d="M228.366,244.611l-3.622-13.166,13.167,3.29-3.27,1.982,6.512,6.505-4.567,4.575-6.529-6.537-1.692,3.351" transform="translate(-187.403 -199.343)" fill="#ff6d24"/>
            </g>
          </g>
        </g>
        <g id="Group_90368" data-name="Group 90368" transform="translate(0 -2.635)">
          <text id="Activity_Monitoring" data-name="Activity Monitoring" transform="translate(1576 715)" fill="#03091a" font-size="24" font-family="EncodeSans-Regular, Encode Sans"><tspan x="0" y="0">Activity Monitoring</tspan></text>
          <g id="Group_90367" data-name="Group 90367" transform="translate(1638.412 644.267)">
            <g id="Group_90423" data-name="Group 90423" transform="translate(10.958 -11)">
              <path id="Path_137851" data-name="Path 137851" d="M2.144,29.339h.74q20.866,0,41.731-.01a1.367,1.367,0,0,1,1.076.448c1.686,1.717,3.394,3.412,5.1,5.109a2.915,2.915,0,0,0,.442.306,1.706,1.706,0,0,1-1.342.938,4.3,4.3,0,0,1-.494.011q-23.684,0-47.368,0a3.161,3.161,0,0,1-.736-.053A1.7,1.7,0,0,1,0,34.369Q0,18.324,0,2.28A2.218,2.218,0,0,1,2.26.021c.115,0,.231,0,.346,0Q25.771.02,48.936,0a2.355,2.355,0,0,1,2.512,2.493c-.039,8.026-.019,16.053-.019,24.079v.707c-.745-.742-1.424-1.4-2.068-2.082-.107-.114-.075-.375-.075-.568q0-10.631,0-21.261c0-1.076-.128-1.207-1.182-1.207H3.3c-1.012,0-1.159.144-1.159,1.132q0,12.707,0,25.414Zm23.379,4.011c.558,0,1.116,0,1.675,0,.42,0,.7-.174.746-.613.034-.365-.264-.637-.712-.641-1.116-.011-2.233-.007-3.349,0a.625.625,0,0,0-.7.61c-.032.363.269.632.713.642.541.012,1.083,0,1.625,0" transform="translate(0 -0.001)" fill="#1e5bfa"/>
              <path id="Path_137852" data-name="Path 137852" d="M256.828,56.283a12.279,12.279,0,1,1,1.587-1.585c.641.644,1.284,1.3,1.937,1.939a.414.414,0,0,0,.27.083,2.066,2.066,0,0,1,1.509.726q3.414,3.437,6.848,6.853a1.8,1.8,0,1,1-2.4,2.7c-.356-.318-.681-.67-1.019-1.008q-3.006-3.005-6.015-6.009a2.161,2.161,0,0,1-.714-1.469.642.642,0,0,0-.17-.381c-.6-.615-1.2-1.216-1.834-1.846m-7.884.588A10.044,10.044,0,1,0,238.91,46.8a10.041,10.041,0,0,0,10.034,10.066" transform="translate(-213.232 -31.12)" fill="#ff6d24"/>
              <path id="Path_137853" data-name="Path 137853" d="M45.548,104.943c.311-1.3.6-2.508.894-3.721q.563-2.352,1.124-4.7c.163-.676.494-1.01,1.015-1.044.5-.033.871.268,1.126.924.024.061.045.124.075.183a5.468,5.468,0,0,1,.487,3.848,19.8,19.8,0,0,0-.107,2.385,15.15,15.15,0,0,1-1.307-2.725c-.289,1.2-.56,2.314-.829,3.432-.331,1.376-.665,2.75-.985,4.128a1.065,1.065,0,0,1-2.022.354c-1.105-1.736-2.229-3.461-3.329-5.2a.736.736,0,0,0-.713-.389c-2.884.013-5.767.008-8.651.006a3.175,3.175,0,0,1-.59-.038,1.023,1.023,0,0,1,.076-2.02,4,4,0,0,1,.493-.017c3.114,0,6.229.011,9.343-.01a1.475,1.475,0,0,1,1.42.769c.692,1.139,1.434,2.249,2.157,3.37.086.134.181.263.324.47" transform="translate(-27.846 -86.016)" fill="#fec2a5"/>
              <path id="Path_137854" data-name="Path 137854" d="M197.833,381.157H182.507c.106-.147.17-.251.249-.343.269-.312.543-.62.814-.929,1.48-1.685,1.491-1.684,1.622-3.91.025-.42.142-.552.578-.549q4.374.03,8.748,0c.434,0,.565.125.582.548.027.69.11,1.379.2,2.064a1.047,1.047,0,0,0,.246.509c.728.848,1.472,1.683,2.287,2.61" transform="translate(-164.431 -338.243)" fill="#ff6d24"/>
              <path id="Path_137855" data-name="Path 137855" d="M112.208,445.923a2.147,2.147,0,0,1,2.188-2.12c.873-.017,1.746,0,2.62,0q11.022,0,22.045,0a2.165,2.165,0,0,1,2.352,2.123Z" transform="translate(-101.095 -399.839)" fill="#1e5bfa"/>
              <path id="Path_137856" data-name="Path 137856" d="M276.543,112.9q.672-2.523,1.344-5.046c.233-.874.463-1.75.7-2.623a1.053,1.053,0,0,1,2.079-.1c.461,1.25.938,2.5,1.363,3.758a.642.642,0,0,0,.745.5c1.879-.019,3.758-.009,5.637-.009h.631l-.162,2.051c-.215.012-.36.027-.506.027q-3.313,0-6.625,0c-.783,0-1.039-.189-1.315-.934q-.283-.763-.568-1.526a.712.712,0,0,0-.094-.118c-.336,1.254-.664,2.474-.989,3.7-.339,1.272-.672,2.545-1.012,3.817-.165.618-.486.92-.986.948-.528.03-.849-.2-1.1-.8-.709-1.7-1.424-3.4-2.111-5.109a.567.567,0,0,0-.649-.428c-.54.03-1.084.008-1.7.008v-2.06c1,0,2.014-.027,3.029.012.45.018.7.369.869.78.431,1.066.877,2.125,1.318,3.187Z" transform="translate(-244.358 -93.96)" fill="#1e5bfa"/>
            </g>
          </g>
        </g>
        <g id="Group_90353" data-name="Group 90353" transform="translate(77 54.078)">
          <g id="Group_90337" data-name="Group 90337" transform="translate(1164 341.262)">
            <g id="Group_90336" data-name="Group 90336" clip-path="url(#clip-path-18)">
              <g id="Group_90335" data-name="Group 90335" transform="translate(-0.819)">
                <g id="Group_90418" data-name="Group 90418">
                  <path id="Path_137647" data-name="Path 137647" d="M104.154,181.616a261.062,261.062,0,0,0-3.1-32.447c-2.221-12.671-4.221-19.959-4.244-20.037-.293-1.115-4.52-5.622-13.919-5.483s-8.508,6.051-8.508,6.051a1.894,1.894,0,0,0,.068.525,280.172,280.172,0,0,1,8.345,71c-.006.559-.069,1.526-.029,2.17,0,0,21.78.554,21.785,0,.76-3.482.389-13.129-.4-21.779" transform="translate(-39.332 -66.761)" fill="#ff6d24"/>
                  <path id="Path_137648" data-name="Path 137648" d="M109.746,201.028c-.007.555-.3,1-.667,1h-.009c-.362-.008-.651-.453-.655-1H89.751c-.006.555-.3,1-.667,1h-.008c-.369-.008-.662-.468-.657-1.029a274.13,274.13,0,0,0-1.548-31.452c-2.482-23.438-7.068-39.1-7.133-39.321a1.921,1.921,0,0,1-.067-.526s-.892-5.911,8.506-6.051,13.627,4.369,13.92,5.484c.017.058,1.149,4.186,2.655,11.607.5,2.459,1.037,5.277,1.59,8.428a261.067,261.067,0,0,1,3.1,32.448c.789,8.649,1.067,15.932.309,19.413" transform="translate(-42.186 -66.761)" fill="#ff6d24"/>
                  <path id="Path_137649" data-name="Path 137649" d="M118.223,221.089c-.007.555-.3,1-.667,1h-.009c-.362-.008-.651-.453-.655-1H98.228c-.006.555-.3,1-.667,1h-.008c-.369-.008-.662-.468-.657-1.029a274.133,274.133,0,0,0-1.548-31.452c3.086-14.875,15.012-26.251,17.88-28.808.5,2.459,1.037,5.277,1.59,8.428a261.067,261.067,0,0,1,3.1,32.448c.789,8.649,1.067,15.932.309,19.413" transform="translate(-50.663 -86.822)" fill="#fec2a5"/>
                  <path id="Path_137650" data-name="Path 137650" d="M95.116,203.578l-.065-.061,0-.057c0-.016,0-.034,0-.049-.006-.348-.518-23.837-1.843-35.039-.789-6.665-5.62-34.48-5.649-34.6a1.514,1.514,0,0,1-.054-.419,3.6,3.6,0,0,1,.861-2.678c1.051-1.24,2.924-1.889,5.568-1.927.107,0,.213,0,.318,0,6.781,0,9.9,3.277,10.133,4.158.05.167,5.408,21.649,6.336,33.778.086,1.125.278,3.038.519,5.459,1.424,14.236,2.776,29.453.772,29.8a51.053,51.053,0,0,1-8.62.61c-.794,0-1.555-.009-2.269-.018-.635-.006-1.233-.013-1.79-.013-2.494,0-4.045.149-4.071.893,0,.011,0,.023,0,.035v.006c0,.058-.019.119-.1.123Zm-.866-74.62-.315,0c-2.58.039-4.4.662-5.409,1.852a3.45,3.45,0,0,0-.812,2.526,1.366,1.366,0,0,0,.047.375c.026.087,4.848,27.806,5.656,34.634,1.223,10.343,1.753,31.149,1.833,34.58.5-.511,1.892-.621,4.082-.621.557,0,1.157.006,1.792.013.714.008,1.474.017,2.267.017h0a50.936,50.936,0,0,0,8.583-.606c1.976-.341,0-20.081-.947-29.568-.243-2.423-.434-4.337-.52-5.465-.93-12.144-6.277-33.542-6.33-33.74-.223-.847-3.27-4-9.928-4" transform="translate(-46.417 -69.514)" fill="#fde8de"/>
                  <path id="Path_137651" data-name="Path 137651" d="M95.712,287.1H168.89s-1.7-6.8-44.084-5.789c-29.992.717-29.094,5.789-29.094,5.789" transform="translate(-50.858 -151.836)" fill="#ff6d24"/>
                  <path id="Path_137652" data-name="Path 137652" d="M82.768,366.3c8.485-42.367,6.3-68.366,6.292-68.693-.022-.652,1.2-1.244,1.853-1.266s3.593-.193,3.932.366c.443.732,2.152,32.763-10.494,69.593Z" transform="translate(-44.286 -159.428)" fill="#fec2a5"/>
                  <path id="Path_137653" data-name="Path 137653" d="M216.722,366.3c-8.485-42.367-6.3-68.366-6.292-68.693.022-.652-1.2-1.244-1.853-1.266s-3.593-.193-3.932.366c-.444.732-2.153,32.763,10.493,69.593Z" transform="translate(-109.499 -159.987)" fill="#fec2a5"/>
                  <path id="Path_137654" data-name="Path 137654" d="M246.155,366.3c-8.485-42.367-6.3-68.366-6.292-68.693.021-.652-1.2-1.244-1.853-1.266s-3.593-.193-3.931.366c-.444.732-2.153,32.763,10.493,69.593Z" transform="translate(-125.391 -159.987)" fill="#fec2a5"/>
                  <path id="Path_137655" data-name="Path 137655" d="M112.4,366.3c8.485-42.367,6.3-68.366,6.292-68.693-.022-.652,1.2-1.244,1.853-1.266s3.592-.193,3.931.366c.444.732,2.153,32.763-10.493,69.593Z" transform="translate(-59.869 -159.987)" fill="#fec2a5"/>
                  <path id="Path_137656" data-name="Path 137656" d="M168.68,294.126H92.6a.048.048,0,0,1-.047-.047v-3.835a.047.047,0,0,1,.047-.047H168.68a.048.048,0,0,1,.047.047v3.835a.047.047,0,0,1-.047.047" transform="translate(-49.152 -156.688)" fill="#fde8de"/>
                  <path id="Path_137657" data-name="Path 137657" d="M217.7,193.453s13.378,15.279,16.115,15.03c2.8-.255,4.5-1.136,6.939,0,1.749.816,7.28,5.264,5.795,4.97s-4.171-.64-4.88-.707c-.977-.093-2.544-.115-3.608-.3-.673-.117-3.1-.185-3.913-.212-3.521-.115-20.174-9.845-20.174-9.845Z" transform="translate(-114.715 -104.452)" fill="#ff9490"/>
                  <path id="Path_137658" data-name="Path 137658" d="M152.134,14.356s-.6-7.674-11.643-5.682c-2.918.527-4.924-4.677-9.7-2.823C120.5,9.844,119.9,4.573,116.924,11.971c-1.244,3.1-9.158,6.7-6.741,12.055s-1.627,8.952,1.214,13.145c1.47,2.171.873,6.05,7.808,6.188,3.455.069,8.835,6.469,12.712,7.632s15.518-.514,15.079-5.833c-.342-4.15,4.5-3.8,7.47-8.575,2.6-4.169-2.038-5.219.441-11.96,1.817-4.941-2.917-6.145-2.774-10.267" transform="translate(-58.427 -2.943)"/>
                  <path id="Path_137659" data-name="Path 137659" d="M332.132,413.815c-.237,2.567,3.337,3.192,7.476,3.4s2.889,1.054,8.561,2.081,7.945-.524,8.356-1.292c.366-.679-2.271-1.743-5.082-2.944-.354-.15-.708-.305-1.062-.46-3.163-1.391-4.938-4.227-7.4-6.858-2.336-2.491-4.554-10.468-4.554-10.468l-7.708-1.646s2.164,7.178,2.916,10.244c.442,1.8-.211,3.819-.789,5.351a10.093,10.093,0,0,0-.709,2.593" transform="translate(-177.746 -213.612)" fill="#fec2a5"/>
                  <path id="Path_137660" data-name="Path 137660" d="M341.259,435.515c4.139.207,2.888,1.054,8.56,2.081s7.945-.524,8.356-1.291c.366-.679-2.271-1.743-5.082-2.945l-.044.048a16.157,16.157,0,0,1-8.592.1c-3.753-1.019-7.381-3.261-9.966-3.986a10.075,10.075,0,0,0-.709,2.593c-.237,2.567,3.337,3.192,7.476,3.4" transform="translate(-179.396 -231.915)"/>
                  <path id="Path_137661" data-name="Path 137661" d="M155.155,229.7s51.222-3.855,60.865,2.231,25.109,76.974,25.109,76.974a6.3,6.3,0,0,1-3.087,1c-1.983.215-6.349-.95-6.349-.95s-22.226-31.718-23.792-39.709-1.183-15.12-4.748-15.311-48,5.4-54.727-6.44-1.165-23.565-1.165-23.565Z" transform="translate(-77.528 -120.907)"/>
                  <path id="Path_137662" data-name="Path 137662" d="M293.824,414.442c-.237,2.568,3.337,3.191,7.476,3.4s2.888,1.054,8.56,2.082,7.945-.525,8.356-1.291c.366-.68-2.271-1.744-5.082-2.946-.354-.15-.708-.3-1.062-.459-3.163-1.391-4.938-4.228-7.4-6.859-2.336-2.49-4.554-10.467-4.554-10.467l-7.708-1.646s2.164,7.178,2.915,10.244c.442,1.8-.21,3.818-.789,5.352a10.065,10.065,0,0,0-.709,2.592" transform="translate(-157.062 -213.951)" fill="#fec2a5"/>
                  <path id="Path_137663" data-name="Path 137663" d="M302.951,436.143c4.139.207,2.888,1.054,8.56,2.082s7.945-.525,8.356-1.291c.366-.68-2.271-1.744-5.082-2.946l-.043.048a16.147,16.147,0,0,1-8.592.1c-3.753-1.019-7.381-3.261-9.965-3.985a10.066,10.066,0,0,0-.709,2.592c-.237,2.568,3.337,3.191,7.476,3.4" transform="translate(-158.712 -232.255)"/>
                  <path id="Path_137664" data-name="Path 137664" d="M132.44,226.124s45.5,2.153,54.9,8.61,22.093,77.894,22.093,77.894a6.29,6.29,0,0,1-3.123.875c-1.989.137-6.307-1.2-6.307-1.2s-20.975-32.559-22.229-40.6-.594-15.155-4.149-15.484-48.178,3.529-54.434-8.566,13.247-21.526,13.247-21.526" transform="translate(-62.87 -122.092)"/>
                  <path id="Path_137665" data-name="Path 137665" d="M117.263,82.214a.737.737,0,0,1,.058-.071,7.187,7.187,0,0,1,1.269-1.112l.017-.012h0c3.717-2.6,10.358-3.152,10.358-3.152v0h0v0s.726-.069,1.875-.121a34.419,34.419,0,0,0,2.17-10.479l.659.176,11.071,2.97s-.49,3.514-.72,6.839c-.05.729-.087,1.447-.1,2.118.321.118.617.233.879.343h0s6.33.747,7.828,2.357S157.12,94.4,157.875,96.3l-42.624.7s-1.07-11.139,2.012-14.785" transform="translate(-61.312 -36.32)" fill="#fec2a5"/>
                  <path id="Path_137666" data-name="Path 137666" d="M169.216,141.55c-.249.276-.905,1.444-1.831,2.847-.276.419-.577.859-.9,1.306-1.352,1.876-3.064,3.825-4.835,4.514a3.3,3.3,0,0,1-2,.183,11.991,11.991,0,0,1-4.2-2.893,26.12,26.12,0,0,1-3.615-4.231,14.761,14.761,0,0,1-1.01-1.751q-.089.678-.158,1.3v.007c-.236,2.23-.269,3.969.092,4.769.466,1.01,1.968,2.02,3.667,3.018,3.379,1.968,7.591,3.864,6.16,5.576-1.207,1.437-4.959,1.877-8.981,2.54-3.156.518-6.475,1.173-8.837,2.565-.092.052-.184.1-.282.164-5.668,3.339-22.68,13.613-27.725,13.134-1.987-.19-1.62-3.989-.413-9.034,1.9-7.958,5.872-19.012,5.872-23.814,0-2.624-5.891-28.61-5.891-28.61S113.255,102,116.339,98.356l1.332-1.187.013-.006h.006c.2.111,13.082,7.367,20.6,7.774,7.577.407,13.416-6.724,13.416-6.724,1.5,1.613,4.494,12.333,5.248,14.23,0,0,6.114,24.129,7.669,25.376s5.347,2.9,4.593,3.732" transform="translate(-60.388 -52.461)" fill="#fe7f3f"/>
                  <path id="Path_137667" data-name="Path 137667" d="M166.91,51.332s-14.87-.746-14.263-10-.9-15.581,8.616-15.5,11.131,3.736,11.68,6.875-2.148,18.576-6.032,18.621" transform="translate(-81.591 -13.95)" fill="#fec2a5"/>
                  <path id="Path_137668" data-name="Path 137668" d="M165.6,25.777s-3.554-.829-4.715.9-.332,2.7-2.925,3.422-3.474.674-3.215,2.489-2.606,3.162-2.729,4.615a2.543,2.543,0,0,1-2.457,2.281c-1.141.1-.622-18.72,3.785-19.549s8.66.156,9.956,1.193,2.3,4.649,2.3,4.649" transform="translate(-79.652 -10.596)"/>
                  <path id="Path_137669" data-name="Path 137669" d="M183.4,27.158s3.457-.242,4.079,1.728-.207,2.437.674,3.631.372,3.307.372,3.307,6.836-12.59-.372-13.419-7.018.639-4.753,4.753" transform="translate(-97.453 -11.977)"/>
                  <path id="Path_137670" data-name="Path 137670" d="M211.173,166.441c-.276.419-.578.859-.9,1.306-1.352,1.876-3.064,3.825-4.836,4.514a3.3,3.3,0,0,1-2,.183,11.978,11.978,0,0,1-4.2-2.893,26.121,26.121,0,0,1-3.616-4.231,14.9,14.9,0,0,1-1.01-1.751q-.088.678-.158,1.3V162.76s.834-36.863,2.107-20.651c.931,11.867,9.886,20.541,14.61,24.332" transform="translate(-104.175 -74.505)" fill="#ff6d24"/>
                  <path id="Path_137671" data-name="Path 137671" d="M127.79,144.684s-18.268,31.456,20.144,42.437c.1-.057.195-.114.285-.168,2.36-1.387,5.681-2.041,8.836-2.565,4.022-.659,7.776-1.1,8.978-2.538,1.43-1.712-2.776-3.609-6.158-5.577-1.7-.993-5.276-1.957-5.743-2.967-.359-.8-26.343-28.622-26.343-28.622" transform="translate(-65.836 -78.12)" fill="#ff6d24"/>
                  <path id="Path_137672" data-name="Path 137672" d="M56.155,220.539,53.22,237.17h0l-8.106,45.939-7.247,41.067a1.32,1.32,0,0,1-1.312,1.077.928.928,0,0,1-.937-1.039l6.249-46.554,6.683-49.8,1.009-7.512Z" transform="translate(-18.408 -118.975)"/>
                  <path id="Path_137673" data-name="Path 137673" d="M68.407,237.17c.386-7.147-4.669-9.307-4.669-9.307l1.009-7.512,6.6.188Z" transform="translate(-33.596 -118.975)" fill="#ff6d24"/>
                  <path id="Path_137674" data-name="Path 137674" d="M917.721,325.254a1.324,1.324,0,0,1-1.314-1.077L909.97,287.69l-9.259-52.476-2.59-14.675,6.6-.188,1.144,8.518,8.035,59.863,4.763,35.483a.929.929,0,0,1-.937,1.039" transform="translate(-484.108 -118.975)" fill="#03091a"/>
                  <path id="Path_137675" data-name="Path 137675" d="M905.861,228.869a9.459,9.459,0,0,0-5.15,6.344l-2.59-14.674,6.6-.188Z" transform="translate(-484.108 -118.975)" fill="#ff6d24"/>
                  <path id="Path_137676" data-name="Path 137676" d="M439.022,219.759H5.761a5.761,5.761,0,0,1,0-11.522H439.022a5.761,5.761,0,1,1,0,11.522" transform="translate(0.819 -112.434)"/>
                  <g id="Group_90324" data-name="Group 90324" transform="translate(97.772 9.994)" opacity="0.2">
                    <g id="Group_90323" data-name="Group 90323">
                      <g id="Group_90322" data-name="Group 90322" clip-path="url(#clip-path-19)">
                        <path id="Path_137677" data-name="Path 137677" d="M301.248,90.122H210.738l8.4-68.4h90.51Z" transform="translate(-210.738 -21.722)" fill="#d2e9ff"/>
                      </g>
                    </g>
                  </g>
                  <path id="Path_137678" data-name="Path 137678" d="M313.725,21.726l-8.4,68.4H214.817l1.914-15.591,6.482-52.8Z" transform="translate(-115.168 -11.731)" fill="#1e5bfa"/>
                  <path id="Path_137679" data-name="Path 137679" d="M313.725,21.726l-8.4,68.4H214.817l1.914-15.591c74.715,4.5,77.148-42.663,76.81-52.8Z" transform="translate(-115.168 -11.731)" fill="#5886ff"/>
                  <g id="Group_90327" data-name="Group 90327" transform="translate(128.77 34.887)" opacity="0.2">
                    <g id="Group_90326" data-name="Group 90326">
                      <g id="Group_90325" data-name="Group 90325" clip-path="url(#clip-path-20)">
                        <path id="Path_137680" data-name="Path 137680" d="M305.362,80.439c-.219-2.174-1.356-4.34-3.525-4.608l-3.81.03a3.93,3.93,0,0,0-4.41,3.773l-1.667,51.553a3.137,3.137,0,0,1-3.134,3.035h-9.394a1.29,1.29,0,0,0-1.26.92,1.265,1.265,0,0,0,1.215,1.6h29.443a1.329,1.329,0,0,0,.167-.017l.352,0a1.508,1.508,0,0,0,1.513-1.659Z" transform="translate(-278.115 -75.831)" fill="#d2e9ff"/>
                      </g>
                    </g>
                  </g>
                  <path id="Path_137681" data-name="Path 137681" d="M309.892,80.439c-.219-2.174-1.356-4.34-3.525-4.608l-3.811.03a3.93,3.93,0,0,0-4.41,3.773l-1.667,51.553a3.137,3.137,0,0,1-3.134,3.035h-9.394a1.29,1.29,0,0,0-1.26.92,1.265,1.265,0,0,0,1.216,1.6H313.35a1.347,1.347,0,0,0,.167-.017l.352,0a1.509,1.509,0,0,0,1.513-1.659Z" transform="translate(-151.791 -40.944)" fill="#2e49d2"/>
                  <path id="Path_137682" data-name="Path 137682" d="M557.723,69.925,552.7,129.606s-.526,3.617,2.165,3.624c4.425.01,22.022,0,22.022,0s-3.33-.754-3.289-2.448c.048-2,5.867-61.421,5.867-61.421Z" transform="translate(-297.583 -37.45)" fill="#fec2a5"/>
                  <path id="Path_137683" data-name="Path 137683" d="M580.016,130.876c-.87,0-17.678.056-21.987,0-1.878-.023-2.207-1.67-2.223-2.735a5.312,5.312,0,0,1,.057-.888l.13-1.552.333-3.953.294-3.493.377-4.488.318-3.789,3.566-42.406,21.745-.565s-2.451,24.869-4.185,42.971c-.194,2.016-.377,3.951-.547,5.756-.056.576-.108,1.14-.16,1.688-.161,1.713-.308,3.285-.436,4.674-.067.732-.13,1.413-.186,2.036-.221,2.441-.351,4-.352,4.3a2.487,2.487,0,0,0,.042.482c.357,1.9,2.885,1.964,3.213,1.964" transform="translate(-299.28 -36.179)" fill="#ff6d24"/>
                  <path id="Path_137684" data-name="Path 137684" d="M448.878,0,461.1,49.109l1.674,6.726,5.694,22.874h105.79L553.274,0Z" transform="translate(-241.546 0)" fill="#1e5bfa"/>
                  <path id="Path_137685" data-name="Path 137685" d="M446.89,0,445.2.565l19.036,79.852,2.253-1.708Z" transform="translate(-239.558 0)" fill="#5886ff"/>
                  <path id="Path_137686" data-name="Path 137686" d="M486.571,172.79H591.711l2.9-1.708H488.824Z" transform="translate(-261.898 -92.373)" fill="#ff6d24"/>
                  <rect id="Rectangle_29905" data-name="Rectangle 29905" width="22.764" height="1.082" transform="translate(261.595 94.72)" fill="#fec2a5"/>
                  <path id="Path_137687" data-name="Path 137687" d="M568.938,64.2,551.772,1.041H448.509V0H553.075l17.108,64.065Z" transform="translate(-241.347 0)" fill="#ff7469"/>
                  <path id="Path_137689" data-name="Path 137689" d="M580.016,197.919c-.87,0-17.678.056-21.987,0-1.878-.023-2.207-1.67-2.223-2.735l21.307-4.009c-.221,2.441-.351,4-.352,4.3a2.491,2.491,0,0,0,.042.482c.357,1.9,2.886,1.964,3.213,1.964" transform="translate(-299.281 -103.223)" fill="#ff6d24"/>
                  <path id="Path_137690" data-name="Path 137690" d="M531.257,128.3l-46.472,15.934-5.694-22.874Z" transform="translate(-257.859 -65.528)" fill="#1e5bfa"/>
                  <path id="Path_137691" data-name="Path 137691" d="M448.878,0h104.4l16.939,63.257H464.088Z" transform="translate(-241.846 0)" fill="#1e5bfa"/>
                  <g id="Group_90333" data-name="Group 90333" transform="translate(276.955 68.444)" opacity="0.2">
                    <g id="Group_90332" data-name="Group 90332">
                      <g id="Group_90331" data-name="Group 90331" clip-path="url(#clip-path-22)">
                        <path id="Path_137692" data-name="Path 137692" d="M605.882,151.58a3.578,3.578,0,0,0-3.355-2.809,2.248,2.248,0,0,0-2.263,2.809,3.578,3.578,0,0,0,3.355,2.809,2.248,2.248,0,0,0,2.263-2.809" transform="translate(-600.211 -148.771)" fill="#fff"/>
                      </g>
                    </g>
                  </g>
                  <path id="Path_137693" data-name="Path 137693" d="M570.364,64.492H472.617L461.548,20.4l-.848-3.382-.725-2.885-1.7-6.763h96.338l1.864,6.763.8,2.885.932,3.382Z" transform="translate(-246.621 -3.977)" fill="#fff"/>
                  <path id="Path_137694" data-name="Path 137694" d="M556.478,14.128h-96.5l-1.7-6.763h96.338Z" transform="translate(-246.621 -3.977)" fill="#ffc5a9"/>
                  <path id="Path_137695" data-name="Path 137695" d="M466.909,13.017a.639.639,0,0,1,.635-.845,1.155,1.155,0,0,1,1.056.845.639.639,0,0,1-.635.846,1.155,1.155,0,0,1-1.056-.846" transform="translate(-251.268 -6.572)" fill="#fff"/>
                  <path id="Path_137696" data-name="Path 137696" d="M473.015,13.017a.639.639,0,0,1,.634-.845,1.155,1.155,0,0,1,1.057.845.639.639,0,0,1-.635.846,1.155,1.155,0,0,1-1.056-.846" transform="translate(-254.565 -6.572)" fill="#fff"/>
                  <path id="Path_137697" data-name="Path 137697" d="M479.591,13.017a.638.638,0,0,1,.635-.845,1.154,1.154,0,0,1,1.056.845.639.639,0,0,1-.635.846,1.154,1.154,0,0,1-1.056-.846" transform="translate(-258.115 -6.572)" fill="#fff"/>
                  <path id="Path_137698" data-name="Path 137698" d="M499.828,53.159H485.089a1.133,1.133,0,0,1-1.034-.828.627.627,0,0,1,.621-.828h14.739a1.134,1.134,0,0,1,1.034.828.627.627,0,0,1-.622.828" transform="translate(-260.526 -27.809)" fill="#1e5bfa"/>
                  <path id="Path_137699" data-name="Path 137699" d="M501.536,60.011H486.8a1.134,1.134,0,0,1-1.034-.828.627.627,0,0,1,.621-.828h14.739a1.134,1.134,0,0,1,1.033.828.626.626,0,0,1-.621.828" transform="translate(-261.448 -31.508)" fill="#ff6d24"/>
                  <path id="Path_137700" data-name="Path 137700" d="M503.245,66.863H488.506a1.133,1.133,0,0,1-1.033-.828.626.626,0,0,1,.621-.828h14.739a1.133,1.133,0,0,1,1.034.828.627.627,0,0,1-.621.828" transform="translate(-262.371 -35.208)" fill="#03091a"/>
                  <path id="Path_137701" data-name="Path 137701" d="M557.107,53.159H542.368a1.134,1.134,0,0,1-1.034-.828.626.626,0,0,1,.621-.828h14.739a1.134,1.134,0,0,1,1.034.828.627.627,0,0,1-.621.828" transform="translate(-291.453 -27.809)" fill="#1e5bfa"/>
                  <path id="Path_137702" data-name="Path 137702" d="M558.816,60.011H544.077a1.133,1.133,0,0,1-1.034-.828.627.627,0,0,1,.621-.828H558.4a1.134,1.134,0,0,1,1.034.828.626.626,0,0,1-.621.828" transform="translate(-292.376 -31.508)" fill="#1e5bfa"/>
                  <path id="Path_137703" data-name="Path 137703" d="M560.524,66.863H545.785a1.134,1.134,0,0,1-1.034-.828.627.627,0,0,1,.622-.828h14.739a1.134,1.134,0,0,1,1.034.828.627.627,0,0,1-.622.828" transform="translate(-293.298 -35.208)" fill="#1e5bfa"/>
                  <path id="Path_137704" data-name="Path 137704" d="M612.2,53.159H597.459a1.134,1.134,0,0,1-1.034-.828.626.626,0,0,1,.621-.828h14.739a1.133,1.133,0,0,1,1.034.828.627.627,0,0,1-.621.828" transform="translate(-321.198 -27.809)" fill="#ff6d24"/>
                  <path id="Path_137705" data-name="Path 137705" d="M613.905,60.011H599.167a1.135,1.135,0,0,1-1.034-.828.627.627,0,0,1,.621-.828h14.74a1.137,1.137,0,0,1,1.034.828.627.627,0,0,1-.622.828" transform="translate(-322.12 -31.508)" fill="#ff6d24"/>
                  <path id="Path_137706" data-name="Path 137706" d="M615.615,66.863H600.877a1.134,1.134,0,0,1-1.034-.828.627.627,0,0,1,.621-.828H615.2a1.133,1.133,0,0,1,1.034.828.627.627,0,0,1-.621.828" transform="translate(-323.043 -35.208)" fill="#ff6d24"/>
                  <path id="Path_137707" data-name="Path 137707" d="M560.214,30.741l.726,2.912a.736.736,0,0,1-.73.971H476.835a1.331,1.331,0,0,1-1.213-.971l-.726-2.912a.735.735,0,0,1,.729-.97H559a1.331,1.331,0,0,1,1.213.97" transform="translate(-255.578 -16.074)" fill="#fec2a5"/>
                  <path id="Path_137708" data-name="Path 137708" d="M534.729,29.77l1.21,4.854h-59.1a1.331,1.331,0,0,1-1.213-.971l-.726-2.912a.735.735,0,0,1,.729-.971Z" transform="translate(-255.578 -16.074)" fill="#ff6d24"/>
                  <path id="Path_137709" data-name="Path 137709" d="M629.077,33.479h-.922l-.093-.373h1.413l.081.325-.472,1.637H628.6Z" transform="translate(-338.294 -17.875)" fill="#03091a"/>
                  <path id="Path_137710" data-name="Path 137710" d="M632.136,34.046c-.142-.569.1-1.015.622-1.015a1.25,1.25,0,0,1,1.122,1.015c.142.57-.1,1.015-.622,1.015a1.244,1.244,0,0,1-1.122-1.015m1.3,0c-.089-.356-.33-.624-.587-.624s-.362.26-.271.624.327.626.588.626.36-.264.271-.626" transform="translate(-340.472 -17.835)" fill="#03091a"/>
                  <path id="Path_137711" data-name="Path 137711" d="M636.306,33.557a.364.364,0,0,1,.355-.5.645.645,0,0,1,.6.5.365.365,0,0,1-.354.5.645.645,0,0,1-.6-.5m1.509-.478h.335l-.944,1.962h-.334Zm-.85.478c-.033-.132-.134-.246-.246-.246s-.152.112-.118.246.134.247.247.247.151-.115.118-.247m.8,1a.364.364,0,0,1,.355-.5.643.643,0,0,1,.6.5.365.365,0,0,1-.354.5.645.645,0,0,1-.6-.5m.659,0c-.033-.132-.134-.247-.247-.247s-.151.112-.118.247.134.247.246.247.151-.115.118-.247" transform="translate(-342.736 -17.848)" fill="#03091a"/>
                  <path id="Path_137712" data-name="Path 137712" d="M574.258,97.534h-7.391a2.566,2.566,0,0,1-2.347-1.879l-3.572-14.328a1.42,1.42,0,0,1,1.41-1.88h7.391a2.567,2.567,0,0,1,2.347,1.88l3.573,14.328a1.419,1.419,0,0,1-1.411,1.879" transform="translate(-302.025 -42.896)" fill="#fec2a5"/>
                  <path id="Path_137713" data-name="Path 137713" d="M602.063,97.534h-7.391a2.567,2.567,0,0,1-2.347-1.879l-3.572-14.328a1.42,1.42,0,0,1,1.411-1.88h7.39a2.566,2.566,0,0,1,2.348,1.88l3.572,14.328a1.42,1.42,0,0,1-1.41,1.879" transform="translate(-317.038 -42.896)" fill="#fec2a5"/>
                  <path id="Path_137714" data-name="Path 137714" d="M629.349,97.534h-7.391a2.566,2.566,0,0,1-2.346-1.879l-3.573-14.328a1.42,1.42,0,0,1,1.411-1.88h7.39a2.566,2.566,0,0,1,2.347,1.88l3.572,14.328a1.419,1.419,0,0,1-1.411,1.879" transform="translate(-331.77 -42.896)" fill="#fec2a5"/>
                  <path id="Path_137715" data-name="Path 137715" d="M520.65,97.534H495.628a4.3,4.3,0,0,1-3.934-3.149L488.755,82.6a2.379,2.379,0,0,1,2.364-3.15h25.022a4.3,4.3,0,0,1,3.935,3.15l2.939,11.788a2.379,2.379,0,0,1-2.364,3.149" transform="translate(-263.025 -42.896)" fill="#fec2a5"/>
                  <path id="Path_137716" data-name="Path 137716" d="M519.193,87.593h-23.38a.982.982,0,0,1-.9-.717.543.543,0,0,1,.538-.717h23.38a.983.983,0,0,1,.9.717.543.543,0,0,1-.538.717" transform="translate(-266.392 -46.52)" fill="#fff"/>
                  <path id="Path_137717" data-name="Path 137717" d="M520.688,93.587h-23.38a.982.982,0,0,1-.9-.717.543.543,0,0,1,.538-.717h23.381a.982.982,0,0,1,.9.717.543.543,0,0,1-.538.717" transform="translate(-267.2 -49.757)" fill="#fff"/>
                  <path id="Path_137718" data-name="Path 137718" d="M522.182,99.58H498.8a.983.983,0,0,1-.9-.717.543.543,0,0,1,.538-.717h23.38a.982.982,0,0,1,.9.717.543.543,0,0,1-.538.717" transform="translate(-268.006 -52.992)" fill="#fff"/>
                  <path id="Path_137719" data-name="Path 137719" d="M505.992,106.291h-5.516a.983.983,0,0,1-.9-.717.543.543,0,0,1,.538-.717h5.516a.983.983,0,0,1,.9.717.543.543,0,0,1-.538.717" transform="translate(-268.91 -56.616)" fill="#fff"/>
                  <path id="Path_137720" data-name="Path 137720" d="M723.066,281.284s-13.213,6.553-13.991,13.679,2.063,50.186,2.063,50.186,13.863,2.622,16.312.072c0,0,3.45-46.1,2.839-48.179s38.039-13.452,41.475-13.381-48.7-2.377-48.7-2.377" transform="translate(-381.963 -151.875)"/>
                  <path id="Path_137721" data-name="Path 137721" d="M709.459,414.782s-.807,13.01-3.324,13.2c-.335.024-12.766.024-12.766.024l-15.869-.092s.1-3.824,4.742-4.632,12.4-4.068,15.213-10.2c2.956-6.45,12,1.7,12,1.7" transform="translate(-364.987 -221.696)"/>
                  <path id="Path_137722" data-name="Path 137722" d="M612.649,414.782s-.806,13.01-3.323,13.2c-.334.024-12.767.024-12.767.024l-15.869-.092s.1-3.824,4.743-4.632,12.4-4.068,15.213-10.2c2.956-6.45,12,1.7,12,1.7" transform="translate(-312.716 -221.696)"/>
                  <path id="Path_137723" data-name="Path 137723" d="M730.119,223.81l-.267.076a4.756,4.756,0,0,0-2.432-3.113c-9.8-5.544-28.447-1.769-28.447-1.769s-60.169,9.775-65.744,17.7-14.257,75.4-14.257,75.4,10.522,2.748,14.873,1.115c0,0,20.736-53.463,22.415-59.245,1.457-5.014,30.061-1.357,44.492-2.367,8.653-.272,22.188-.893,25.868-2.173,5.535-1.928,3.5-25.618,3.5-25.618" transform="translate(-333.385 -117.57)"/>
                  <path id="Path_137724" data-name="Path 137724" d="M795.922,55.818l-5,6.224-9.462.465c-.1-.9-.424-4.822-.7-8.17-.224-2.735-.414-5.082-.414-5.082l9.995-8.75c.006.056.518,2.962.595,3.385a27.741,27.741,0,0,0,4.987,11.927" transform="translate(-420.517 -21.871)" fill="#fec2a5"/>
                  <path id="Path_137725" data-name="Path 137725" d="M772.947,65.672c.208-.075,12.789-3.087,14.112-2.573s1.984,3.161,1.984,3.161l-20.507,3.528s1.764-3.161,4.41-4.116" transform="translate(-414.141 -34.037)" fill="#1e5bfa"/>
                  <path id="Path_137726" data-name="Path 137726" d="M769.845,35.057s13.414.613,13.667-7.746,2.155-13.91-6.4-14.655-10.315,2.4-11.078,5.164.327,16.861,3.81,17.237" transform="translate(-412.666 -6.773)" fill="#fec2a5"/>
                  <path id="Path_137727" data-name="Path 137727" d="M764.492,11.391s3.161,8.821,4.925,7.938,3.381-1.617,3.822,1.176-1.323,6.615,4.557,5.586,10.256-18.038,7.938-20.433c-6.688-6.909-30.43-2.425-21.242,5.733" transform="translate(-410.831 -1.219)"/>
                  <path id="Path_137728" data-name="Path 137728" d="M799.43,143.551c-3.385,4-32.183,2.956-40.622-.419a5.959,5.959,0,0,1-1.485-.8c-4.961-3.969,6.236-7.455-6.284-37.707a.315.315,0,0,1-.017-.045c-8.98-21.739.542-28.784,6.55-32.269,0,0,17.158-5.274,26.752-2.3,12.459,3.858,18.744,69.239,15.105,73.539" transform="translate(-402.696 -37.311)" fill="#1e5bfa"/>
                  <path id="Path_137729" data-name="Path 137729" d="M773.468,168.15c-.568,4.119-3.883,14.28-10.339,14.428a5.969,5.969,0,0,1-1.484-.8c-4.961-3.969,6.236-7.455-6.284-37.707a.409.409,0,0,1-.018-.045c2.093-1.437,5.484-3.067,7.687-.575,3.383,3.821,11.026,20.431,10.439,24.7" transform="translate(-407.017 -76.758)" fill="#1e5bfa"/>
                  <path id="Path_137730" data-name="Path 137730" d="M643.383,194.552s-5.406-3.128-7.148-3.384-10.014,6.767-8.8,7.308,7.47-2.1,8.375-1.552,1.606,2.057,2.593,2.075,4.32.018,4.32.018Z" transform="translate(-337.89 -103.214)" fill="#ff9490"/>
                  <path id="Path_137731" data-name="Path 137731" d="M708.141,76.081S696.3,82.256,694.751,88.076s-7.238,34.022-9.425,36-27.337,6.562-27.337,6.562-2.946,3.269-2.021,6.248h39.308s17.716-25.619,16.457-35.287-3.594-25.514-3.594-25.514" transform="translate(-353.264 -41.079)" fill="#5886ff"/>
                  <path id="Path_137732" data-name="Path 137732" d="M786.879,281.5H705.226s1.9-7.038,49.19-5.99c33.465.742,32.463,5.99,32.463,5.99" transform="translate(-379.957 -148.7)" fill="#ff6d24"/>
                  <path id="Path_137733" data-name="Path 137733" d="M880.91,363.441c-9.467-43.833-7.034-70.732-7.021-71.07.023-.675-1.336-1.288-2.068-1.31s-4.009-.2-4.387.378c-.5.757-2.4,33.9,11.708,72Z" transform="translate(-467.341 -157.134)" fill="#fec2a5"/>
                  <path id="Path_137734" data-name="Path 137734" d="M731.441,363.441c9.468-43.833,7.034-70.732,7.021-71.07-.024-.675,1.337-1.288,2.068-1.31s4.009-.2,4.387.378c.5.757,2.4,33.9-11.708,72Z" transform="translate(-394.112 -157.134)" fill="#fec2a5"/>
                  <path id="Path_137735" data-name="Path 137735" d="M698.6,363.441c9.467-43.833,7.032-70.732,7.021-71.07-.024-.675,1.336-1.288,2.068-1.31s4.009-.2,4.386.378c.5.757,2.4,33.9-11.708,72Z" transform="translate(-376.381 -157.134)" fill="#fec2a5"/>
                  <path id="Path_137736" data-name="Path 137736" d="M847.848,363.441c-9.467-43.833-7.033-70.732-7.021-71.07.024-.675-1.336-1.288-2.068-1.31s-4.008-.2-4.387.378c-.495.757-2.4,33.9,11.708,72Z" transform="translate(-449.49 -157.134)" fill="#fec2a5"/>
                  <path id="Path_137737" data-name="Path 137737" d="M701.535,288.765h84.9a.048.048,0,0,0,.049-.048v-3.968a.049.049,0,0,0-.049-.049h-84.9a.049.049,0,0,0-.049.049v3.968a.049.049,0,0,0,.049.049" transform="translate(-377.938 -153.72)" fill="#fec2a5"/>
                  <path id="Path_137738" data-name="Path 137738" d="M833.212,172.359a251.126,251.126,0,0,1,3.456-33.57c2.479-13.109,4.71-20.65,4.736-20.731.327-1.152,5.044-5.817,15.53-5.674s9.492,6.262,9.492,6.262a1.808,1.808,0,0,1-.075.543c-.1.315-9.728,32.239-9.311,73.456.005.579.076,1.579.032,2.246,0,0-24.3.574-24.309,0-.847-3.6-.434-13.584.447-22.533" transform="translate(-448.57 -60.679)" fill="#ff6d24"/>
                  <path id="Path_137739" data-name="Path 137739" d="M624.719,203.778s6.561-5.086,9.841-3.487,4.06,3.487,4.06,3.487Z" transform="translate(-336.489 -107.976)" fill="#00448c"/>
                  <path id="Path_137740" data-name="Path 137740" d="M176.361,199.58s6.23-1.422,8.2-.821,6.329,4.265,5.27,4.273-5.268-1.976-5.924-1.593-3.608,1.913-5.522,1.147a3.578,3.578,0,0,1-2.023-3.007" transform="translate(-94.405 -107.237)" fill="#ff9490"/>
                  <path id="Path_137741" data-name="Path 137741" d="M107.773,104.606s-6.11,16.147-6.845,25.028c-1.15,13.887-1.092,22.567-1.092,22.567s3.94.168,13.994,0,21.841,0,21.841,0,3.024-2.93-1.1-5.176-21.466-6.354-21.033-8.088,6.414-25.845,6.414-25.845Z" transform="translate(-53.086 -56.48)" fill="#ff6d24"/>
                  <path id="Path_137742" data-name="Path 137742" d="M182.778,205.847s3.69-2.585,6.273-1.929a12.845,12.845,0,0,1,4.243,1.921Z" transform="translate(-97.869 -110.045)" fill="#00448c"/>
                </g>
              </g>
            </g>
          </g>
          <g id="Group_90352" data-name="Group 90352" transform="translate(1239.39 361.781)">
            <g id="Group_90342" data-name="Group 90342" transform="translate(0.662) rotate(7)">
              <g id="Group_90341" data-name="Group 90341" clip-path="url(#clip-path-23)">
                <path id="Path_137755" data-name="Path 137755" d="M4.825,1.536a.888.888,0,0,0,.032-.306A1.429,1.429,0,0,0,4.01.147,2.517,2.517,0,0,0,2.735.027,4.639,4.639,0,0,0,1.123.468a4.525,4.525,0,0,0-1.1.745A.068.068,0,0,0,.012,1.3a.059.059,0,0,0,.023.045c.345.268.684.542,1.03.809A5.187,5.187,0,0,0,2.1,2.81a1.8,1.8,0,0,0,2.011-.184c.051-.05.1-.1.146-.156l.034-.04c.073-.088.156-.168.229-.256A1.467,1.467,0,0,0,4.674,1.9a1.82,1.82,0,0,0,.151-.365" transform="translate(1.923 1.985)" fill="#fff"/>
                <path id="Path_137756" data-name="Path 137756" d="M2.1,1.381c.02-.5-.181-1.235-.75-1.361A1.111,1.111,0,0,0,.812.051.991.991,0,0,0,.481.206,1.519,1.519,0,0,0,.018,1.24a1.517,1.517,0,0,0,.21,1.086,1,1,0,0,0,.994.374A1.323,1.323,0,0,0,2.1,1.381" transform="translate(4.068 2.142)" fill="#5d2b13"/>
                <path id="Path_137757" data-name="Path 137757" d="M1.874,1.232C1.892.783,1.713.131,1.205.018A.991.991,0,0,0,.725.046a.885.885,0,0,0-.3.138,1.355,1.355,0,0,0-.413.922A1.353,1.353,0,0,0,.2,2.074a.892.892,0,0,0,.887.333,1.18,1.18,0,0,0,.784-1.175" transform="translate(4.183 2.283)" fill="#3584c6"/>
                <path id="Path_137758" data-name="Path 137758" d="M4.991.619A2.23,2.23,0,0,0,3.2.008,5.749,5.749,0,0,0,1.044.74,4.867,4.867,0,0,0,0,1.44c-.013.012.005.032.019.02a5,5,0,0,1,.922-.6C1.269.7,1.6.536,1.938.4A3.39,3.39,0,0,1,4,.143a1.935,1.935,0,0,1,.937.524c.032.033.083-.015.052-.048" transform="translate(1.821 1.394)" fill="#5d2b13"/>
                <path id="Path_137759" data-name="Path 137759" d="M5.587,1.309A2.189,2.189,0,0,1,5.34,1.2l-.058-.055c-.021-.042-.042-.083-.065-.124.042.023.084.045.127.066s.1.022.147.031l-.036-.028.064.022.024.014.028,0,.009,0a.016.016,0,0,0,.012,0l.118.015a1.652,1.652,0,0,1-.531-.5L5.249.7A3,3,0,0,0,4.856.318,2.431,2.431,0,0,0,3.309.01a4.408,4.408,0,0,0-1.32.307A4.785,4.785,0,0,0,.8.938L.77.959a4.646,4.646,0,0,0-.535.417l-.009.009q.054.043.106.088a1.931,1.931,0,0,1-.326.335c-.017.013.006.036.023.023l.007-.005a.016.016,0,0,0,.022.007l.107-.07a.023.023,0,0,0,.026,0l.1-.079q.066-.046.131-.094l0,0q-.054.071-.113.138c-.013.015.007.037.021.023q.062-.063.119-.13l.005.006.024.006a1.716,1.716,0,0,0,.211.215h0c.044.038.088.076.133.113.165.136.34.263.518.384s.369.239.558.351c.095.056.189.112.285.167h0a.154.154,0,0,1,.056.112.308.308,0,0,1-.135.208.334.334,0,0,0,.2-.24l.044.016a1.1,1.1,0,0,0,.125.06.234.234,0,0,1-.028.159.014.014,0,0,0,.024.015A.247.247,0,0,0,2.5,3.025l.007,0q.129.049.256.1a.815.815,0,0,1-.227.324.432.432,0,0,0,.217-.212c.017-.037.033-.082.074-.094a.136.136,0,0,1,.067,0l.182.038a.076.076,0,0,1,.046.022.065.065,0,0,1,.008.047.767.767,0,0,1-.145.378.668.668,0,0,0,.181-.363.063.063,0,0,1,.063-.046.081.081,0,0,1,.052.044.3.3,0,0,1,.032.233c.011.009.025-.008.028-.021a.348.348,0,0,0-.018-.231l.134.006a.178.178,0,0,1,.057.009c.063.024.07.1.072.155A1.643,1.643,0,0,1,3.6,3.58a.52.52,0,0,0-.019-.331,1.385,1.385,0,0,0,.27-.048.349.349,0,0,1,.209.182.448.448,0,0,0-.124-.209c.046-.016.09-.034.134-.054a.041.041,0,0,0,.033-.006l.016-.01a.124.124,0,0,1,.034,0c.1.025.144.108.223.143a.552.552,0,0,0-.175-.2,1.518,1.518,0,0,0,.131-.087.147.147,0,0,1,.142-.034A2.21,2.21,0,0,1,4.695,3c.011,0,.028,0,.028-.007s-.006-.01-.011-.013a1.2,1.2,0,0,0-.238-.1,2.965,2.965,0,0,0,.468-.513,1.312,1.312,0,0,0,.107-.212,1.058,1.058,0,0,0,.036-.112,6.856,6.856,0,0,1-.522.615,1.655,1.655,0,0,1-.838.468,2.66,2.66,0,0,1-1.6-.41A8.754,8.754,0,0,1,.885,1.882,2.609,2.609,0,0,1,.6,1.628a1.551,1.551,0,0,0,.165-.191,1.635,1.635,0,0,0,.3-.28q.036-.038.069-.078-.051.1-.111.187a1.931,1.931,0,0,1-.281.257A1.163,1.163,0,0,0,.9,1.433q-.039.05-.08.1c-.015.017.016.042.032.025a2.719,2.719,0,0,0,.2-.245,1.1,1.1,0,0,0,.137-.157.987.987,0,0,1,.227-.27,1.615,1.615,0,0,1-.114.239l-.032.028a.019.019,0,0,0,0,.032c-.057.113-.106.221-.087.266a1.376,1.376,0,0,0,.194-.28.02.02,0,0,0,.019,0l.012-.007L1.4,1.2l-.007.006a.015.015,0,0,0,0,.022l0,.012.007-.008a.019.019,0,0,0,.025,0,1.416,1.416,0,0,0,.212-.213L1.694.965l-.02.11a.016.016,0,0,0,0,.016l0,.025L1.679,1.1a.019.019,0,0,0,.023,0l.043-.034a.53.53,0,0,0-.025.056A.755.755,0,0,0,1.982.77c0,.014.022.02.036.013A.424.424,0,0,1,2.056.761.054.054,0,0,1,2.119.81.144.144,0,0,1,2.09.894c.064.037.1-.136.167-.1a.065.065,0,0,1,.033-.1l.04.029A.048.048,0,0,0,2.346.679.6.6,0,0,1,2.5.72C2.483.715,2.472.651,2.467.638c.039.088.139.051.228.075L2.5.543A.549.549,0,0,1,2.78.722.3.3,0,0,0,2.733.59a.5.5,0,0,0,.111.087L2.818.593q.141.063.277.137L2.867.465,2.895.459A3.482,3.482,0,0,0,3.333.65c.047.017.113.027.136-.016a.952.952,0,0,1-.4-.218h0a1,1,0,0,0,.288.15L3.157.391l0,0,.419.244c.057.033.139.064.184.017L3.328.362l.611.322L3.823.58a.33.33,0,0,1,.249.1.079.079,0,0,0,0-.067,1.819,1.819,0,0,0,.656.241l0-.006A2.923,2.923,0,0,1,4.181.617a1.274,1.274,0,0,0,.366.129A.865.865,0,0,0,4.3.548c.156.085.305.171.451.266L4.768.8,4.81.828q.03.044.064.086a.013.013,0,0,0,0,.009l.012.011a1.457,1.457,0,0,0,.167.173l.037.032a1.047,1.047,0,0,0,.29.156,1.229,1.229,0,0,0,.222.051.029.029,0,0,0-.019-.036M5.349,1l.024.017-.029-.013L5.292.966l0-.011L5.349,1m-4.636.4c-.022.017-.045.033-.068.049a.018.018,0,0,0-.009.016c-.028.02-.056.038-.085.055a.021.021,0,0,0,.021.037L.627,1.53c-.018.023-.037.046-.056.069L.515,1.536l.049-.067A1.792,1.792,0,0,0,.772,1.26L.8,1.241a1.768,1.768,0,0,1-.091.165m.161-.148C.887,1.231.9,1.2.91,1.178l.056-.033c-.029.039-.06.076-.092.112m.538-.148.021-.04.011-.011L1.432,1.1l-.02.013m.024.055.013-.025.033-.02-.046.045M1.627.941a1.51,1.51,0,0,1-.145.12L1.505,1,1.554.948a.026.026,0,0,0,.038,0L1.654.9,1.627.941M1.733.75,1.652.826A1.108,1.108,0,0,0,1.713.732L1.738.723l0,.027m.131.067L1.833.883a1.232,1.232,0,0,1-.1.13A.586.586,0,0,0,1.777.89a1.451,1.451,0,0,0,.1-.111.262.262,0,0,1-.016.039M2.025.688l0,0c.006-.015.012-.03.017-.045l.007,0c-.006.015-.013.03-.02.044m.05.019L2.09.679A.123.123,0,0,1,2.114.72L2.075.707M2.2.746,2.209.728a.112.112,0,0,0,.016.023L2.2.746M2.342.631,2.323.62,2.294.53l.012,0L2.4.643,2.342.631M2.888.579A.382.382,0,0,1,2.74.5L2.735.489,2.8.477c.037.041.075.091.084.1m.1-.14L3,.436l.05.036L2.985.439m.728.187A1.177,1.177,0,0,1,3.432.489l.282.137M3.769.493Q3.694.423,3.624.349a.135.135,0,0,1,.1.039L3.9.539C3.859.525,3.813.51,3.769.493m.09-.124a.38.38,0,0,1,.165.108A.909.909,0,0,1,3.859.369m.386.2A1.213,1.213,0,0,1,4.059.416l.214.162L4.245.569M4.4.491,4.361.45,4.4.463,4.429.5,4.4.491m.636.527A1.635,1.635,0,0,1,4.889.867c.03.013.06.025.09.036L5,.929q.049.07.1.135l-.064-.046" transform="translate(1.561 1.806)" fill="#03091a"/>
                <path id="Path_137760" data-name="Path 137760" d="M0,0A.208.208,0,0,0,.051.01L0,0" transform="translate(4.63 2.486)" fill="#5d2b13"/>
                <path id="Path_137761" data-name="Path 137761" d="M.254.262.036.007C.018-.014-.012.015,0,.036L.215.3C.237.325.277.288.254.262" transform="translate(4.766 2.817)" fill="#1d6493"/>
                <path id="Path_137762" data-name="Path 137762" d="M.485.293.036,0a.024.024,0,0,0-.026.04l.443.3C.484.362.516.313.485.293" transform="translate(4.542 2.936)" fill="#1d6493"/>
                <path id="Path_137763" data-name="Path 137763" d="M.661,0A5.727,5.727,0,0,0,.005.527C-.009.54.01.56.025.549.25.386.474.221.7.053.722.032.689-.015.661,0" transform="translate(4.35 3.363)" fill="#1d6493"/>
                <path id="Path_137764" data-name="Path 137764" d="M.013,1.059c0,.027,0,.054,0,.081a.086.086,0,0,1,.017.038q.02.108.034.217,0-.173,0-.347Q.064.785.056.523A4.774,4.774,0,0,0,.025.009C.023,0,0,0,0,.011,0,.185.008.361.011.535s0,.349,0,.524" transform="translate(5.213 2.526)" fill="#1d6493"/>
                <path id="Path_137765" data-name="Path 137765" d="M.174.01Q.09.161,0,.312C-.012.339.03.365.044.338Q.125.184.208.031C.22.009.187-.013.174.01" transform="translate(5.382 2.772)" fill="#1d6493"/>
                <path id="Path_137766" data-name="Path 137766" d="M.281,0C.188.071.1.141.007.21-.012.224.013.25.031.236.123.168.217.1.307.032.327.017.3-.01.281,0" transform="translate(5.539 2.974)" fill="#1d6493"/>
                <path id="Path_137767" data-name="Path 137767" d="M.456,0Q.235.019.017.058C-.012.063,0,.106.027.1A3.774,3.774,0,0,1,.454.054C.489.053.491,0,.456,0" transform="translate(5.502 3.307)" fill="#1d6493"/>
                <path id="Path_137768" data-name="Path 137768" d="M.127,0,.014.015C-.01.018,0,.054.023.052L.136.041C.162.038.153,0,.127,0" transform="translate(5.649 3.436)" fill="#1d6493"/>
                <path id="Path_137769" data-name="Path 137769" d="M.354.235.031,0C.009-.012-.012.023.009.039L.323.282C.352.3.383.256.354.235" transform="translate(5.496 3.572)" fill="#1d6493"/>
                <path id="Path_137770" data-name="Path 137770" d="M.132.162.049.013A.026.026,0,0,0,0,.038L.082.189A.028.028,0,0,0,.132.162" transform="translate(5.487 3.869)" fill="#1d6493"/>
                <path id="Path_137771" data-name="Path 137771" d="M.115.32.044.017A.022.022,0,0,0,0,.027L.06.333C.067.368.123.356.115.32" transform="translate(5.435 3.966)" fill="#1d6493"/>
                <path id="Path_137772" data-name="Path 137772" d="M.118.015,0,.405C-.009.44.046.457.055.422l.1-.395C.166,0,.126-.012.118.015" transform="translate(5.032 3.817)" fill="#1d6493"/>
                <path id="Path_137773" data-name="Path 137773" d="M.189.011A4.983,4.983,0,0,0,0,.485.023.023,0,0,0,.045.5C.1.339.158.179.222.021.23,0,.2-.009.189.011" transform="translate(4.861 3.81)" fill="#1d6493"/>
                <path id="Path_137774" data-name="Path 137774" d="M.447.008A4.083,4.083,0,0,1,.008.45C-.016.471.017.506.042.486A3.183,3.183,0,0,0,.481.029C.5.009.463-.012.447.008" transform="translate(4.592 3.634)" fill="#1d6493"/>
                <path id="Path_137775" data-name="Path 137775" d="M.5.377C.385.254.272.123.147.008a.027.027,0,0,0-.041,0A.033.033,0,0,0,.05.032Q.024.423,0,.815c0,.022.031.023.033,0Q.074.432.112.047C.229.169.36.279.485.393.5.4.512.388.5.377" transform="translate(5.208 3.56)" fill="#1d6493"/>
                <path id="Path_137776" data-name="Path 137776" d="M.232.01A4.206,4.206,0,0,0,0,.429C0,.442.013.455.021.442.1.3.182.167.269.034A.022.022,0,0,0,.232.01" transform="translate(4.81 3.761)" fill="#1d6493"/>
                <path id="Path_137777" data-name="Path 137777" d="M.105,0,0,.133c0,.006,0,.013.01.008L.123.02A.011.011,0,1,0,.105,0" transform="translate(4.834 3.758)" fill="#1d6493"/>
                <path id="Path_137778" data-name="Path 137778" d="M.35,0,.008.2A.016.016,0,0,0,.023.227L.371.041C.4.028.375-.011.35,0" transform="translate(4.586 3.369)" fill="#1d6493"/>
                <path id="Path_137779" data-name="Path 137779" d="M.193.011.012,0C0,0,0,.023.011.024l.18.021c.022,0,.023-.033,0-.034" transform="translate(4.716 3.23)" fill="#1d6493"/>
                <path id="Path_137780" data-name="Path 137780" d="M.263.674.027.009C.021-.006,0,0,0,.016L.228.682C.235.7.271.7.263.674" transform="translate(4.903 2.59)" fill="#1d6493"/>
                <path id="Path_137781" data-name="Path 137781" d="M.077.182.022.008C.018-.006,0,0,0,.013L.053.188C.058.2.082.2.077.182" transform="translate(5.051 2.84)" fill="#1d6493"/>
                <path id="Path_137782" data-name="Path 137782" d="M.048.009a.009.009,0,0,0-.017,0C.022.14.018.272,0,.4c0,.023.034.025.036,0a2.018,2.018,0,0,0,.012-.4" transform="translate(5.298 2.55)" fill="#1d6493"/>
                <path id="Path_137783" data-name="Path 137783" d="M.034.007,0,.2C0,.208.017.214.019.2L.052.013C.054,0,.036-.006.034.007" transform="translate(5.371 2.664)" fill="#1d6493"/>
                <path id="Path_137784" data-name="Path 137784" d="M.451.166C.315.1.177.052.037,0,0-.011-.016.045.019.057c.14.05.28.1.424.133A.013.013,0,0,0,.451.166" transform="translate(5.466 3.445)" fill="#1d6493"/>
                <path id="Path_137785" data-name="Path 137785" d="M.34,0C.226.05.116.106.007.164A.014.014,0,0,0,.02.189C.131.134.243.083.354.028.371.019.357-.006.34,0" transform="translate(5.463 3.095)" fill="#1d6493"/>
                <path id="Path_137786" data-name="Path 137786" d="M.185,0,.009.08c-.02.008,0,.039.016.03L.2.028C.218.02.2-.007.185,0" transform="translate(5.572 3.191)" fill="#1d6493"/>
                <path id="Path_137787" data-name="Path 137787" d="M.236,0,0,.2c-.012.011,0,.029.017.019L.259.029C.276.016.253-.01.236,0" transform="translate(4.685 3.601)" fill="#1d6493"/>
                <path id="Path_137788" data-name="Path 137788" d="M.946.622C.955.4.865.066.609.009A.5.5,0,0,0,.366.023a.447.447,0,0,0-.149.07A.684.684,0,0,0,.008.558.683.683,0,0,0,.1,1.047a.451.451,0,0,0,.448.168.6.6,0,0,0,.4-.594" transform="translate(4.777 2.847)" fill="#5d2b13"/>
                <path id="Path_137789" data-name="Path 137789" d="M1.126.359A.248.248,0,0,0,1.117.288.394.394,0,0,0,.865.051C.583-.058.043-.01,0,.376-.043.8.685.784.922.66a.369.369,0,0,0,.2-.3" transform="translate(3.617 3.051)" fill="#fff"/>
                <path id="Path_137790" data-name="Path 137790" d="M7.517.926A.526.526,0,0,0,7.476.886,1.3,1.3,0,0,0,6.993.663,16.029,16.029,0,0,0,4.56.065a4.4,4.4,0,0,0-3.5.8Q.985.918.915.976l-.2.177-.073.063A7.042,7.042,0,0,0,0,1.889l.142-.1L.1,1.834c-.015.018.014.038.03.025.178-.143.352-.289.541-.417a4.714,4.714,0,0,1,.572-.328A5.258,5.258,0,0,1,2.511.69a7.3,7.3,0,0,1,2.97.08c.3.066.6.146.9.236.346.128.681.271,1,.419a.215.215,0,0,0,.181.026.16.16,0,0,0,.071-.087A.428.428,0,0,0,7.517.926" transform="translate(0 0)" fill="#03091a"/>
                <path id="Path_137791" data-name="Path 137791" d="M2.489.139A2.056,2.056,0,0,0,1.36.027q-.106.011-.21.028C1.052.1.956.16.862.219A3.317,3.317,0,0,0,.3.663c-.05.049-.1.1-.15.153C.118.9.085.992.06,1.082a1.211,1.211,0,0,0-.048.528A2.016,2.016,0,0,0,.084,1.9a1.744,1.744,0,0,0,.191.3A1.694,1.694,0,0,0,.5,2.419a5.5,5.5,0,0,0,.506.337l.028.011a1.552,1.552,0,0,0,.936.111,1.1,1.1,0,0,0,.405-.185,1.417,1.417,0,0,0,.187-.17A2.823,2.823,0,0,0,3.143,1.5,1.144,1.144,0,0,0,2.489.139" transform="translate(10.566 1.848)" fill="#fff"/>
                <path id="Path_137792" data-name="Path 137792" d="M1.072.019A.713.713,0,0,0,.648.052.736.736,0,0,0,.386.2a1.6,1.6,0,0,0-.37,1A1.7,1.7,0,0,0,.173,2.255a.743.743,0,0,0,.6.376A.6.6,0,0,0,.952,2.61c.454-.126.678-.734.7-1.281C1.669.869,1.53.139,1.072.019" transform="translate(11.445 1.991)" fill="#5d2b13"/>
                <path id="Path_137793" data-name="Path 137793" d="M1.458,1.181C1.475.748,1.341.121.947.016a.631.631,0,0,0-.374.03A.652.652,0,0,0,.342.181a1.486,1.486,0,0,0-.327.891A1.555,1.555,0,0,0,.153,2a.622.622,0,0,0,.687.315c.408-.114.6-.669.618-1.138" transform="translate(11.546 2.132)" fill="#3584c6"/>
                <path id="Path_137794" data-name="Path 137794" d="M3.112.544A.112.112,0,0,0,3.1.527,1.557,1.557,0,0,0,1.762,0,2.146,2.146,0,0,0,1.328.08Q1.256.1,1.185.124A3.275,3.275,0,0,0,.193.778C.154.814.117.851.079.889L0,1.012a4.5,4.5,0,0,1,.59-.5A2.541,2.541,0,0,1,1.621.074a1.563,1.563,0,0,1,1.43.495c.018.02.05.04.065.017a.039.039,0,0,0,0-.041" transform="translate(10.768 1.329)" fill="#5d2b13"/>
                <path id="Path_137795" data-name="Path 137795" d="M3.919,1.167l-.019,0A.961.961,0,0,1,3.263.671C3.25.583,3.025.388,2.96.335A2.038,2.038,0,0,0,.269.818a1.061,1.061,0,0,0-.26.565A1.631,1.631,0,0,0,.942,2.975l.011,0,.014.006.135.06a.8.8,0,0,1-.2.313.4.4,0,0,0,.193-.2c.015-.036.03-.079.066-.091a.111.111,0,0,1,.059,0l.161.036a.064.064,0,0,1,.041.021.067.067,0,0,1,.007.045.783.783,0,0,1-.13.365.671.671,0,0,0,.162-.35.057.057,0,0,1,.056-.045.073.073,0,0,1,.046.042.313.313,0,0,1,.028.224c.01.008.022-.008.025-.021A.363.363,0,0,0,1.6,3.16l.118,0a.145.145,0,0,1,.05.008c.055.023.062.093.063.149,0,.034.017.139.012.16a.542.542,0,0,0-.016-.319,1.121,1.121,0,0,0,.148-.023.4.4,0,0,1,.116.126A.007.007,0,0,0,2.1,3.259.414.414,0,0,0,2,3.132l.062-.017a.316.316,0,0,1,.185.174.437.437,0,0,0-.109-.2,1.247,1.247,0,0,0,.119-.053.034.034,0,0,0,.029-.006l.014-.01a.1.1,0,0,1,.03,0c.086.024.127.1.2.137a.515.515,0,0,0-.154-.189,1.348,1.348,0,0,0,.116-.084.123.123,0,0,1,.125-.033,1.828,1.828,0,0,1,.192.067c.009,0,.024,0,.025-.007s-.005-.01-.01-.013a1.014,1.014,0,0,0-.21-.1c.06.019.265-.3.289-.34a2.483,2.483,0,0,0,.244-.555,3.5,3.5,0,0,1-.453.681,1.451,1.451,0,0,1-.744.453A1.645,1.645,0,0,1,.234,2.173a1.324,1.324,0,0,1-.1-.275A1.623,1.623,0,0,1,.087,1.57a1.921,1.921,0,0,1,.051-.306.215.215,0,0,1,.035-.086c.039-.048.116-.031.17-.044.016,0,.01-.03-.006-.027a.3.3,0,0,1-.1.006l.026-.027h0a.3.3,0,0,0,.278-.077A.011.011,0,0,0,.532.994a.28.28,0,0,1-.137.062.3.3,0,0,0,.035-.022.012.012,0,0,0,0-.019.031.031,0,0,0,0-.02l.023,0A.479.479,0,0,0,.533.98.014.014,0,0,0,.528.953l-.02,0-.053,0-.025,0L.547.92a.382.382,0,0,0,.15,0C.712.915.709.891.695.89A.664.664,0,0,1,.561.863L.57.851A.446.446,0,0,0,.7.863C.711.862.712.836.7.836A.278.278,0,0,1,.6.818C.61.8.624.779.638.762A.35.35,0,0,0,.88.831C.893.83.895.807.881.807A.328.328,0,0,1,.727.77.746.746,0,0,0,.967.735.017.017,0,0,0,.976.712a.3.3,0,0,1,.07.009L.888.575.9.568A.481.481,0,0,1,1.121.73.3.3,0,0,0,1.08.6a.448.448,0,0,0,.1.084L1.155.606q.125.06.245.131L1.2.482,1.223.477a2.944,2.944,0,0,0,.388.183c.042.016.1.025.121-.016A.818.818,0,0,1,1.38.435h0a.851.851,0,0,0,.255.144L1.455.41l0,0,.37.234c.051.032.123.062.163.016L1.607.382l.54.309-.1-.1a.278.278,0,0,1,.22.094.083.083,0,0,0,0-.064,1.52,1.52,0,0,0,.58.23l0-.006A2.456,2.456,0,0,1,2.362.625a1.06,1.06,0,0,0,.324.123Q2.664.72,2.639.694L2.706.7c.054.035.108.071.161.109l0,0,.061.04c.013.02.027.04.041.059a.013.013,0,0,0,0,.009l.01.011a1.347,1.347,0,0,0,.148.167l.033.03a.9.9,0,0,0,.257.149.384.384,0,0,0,.172.032.575.575,0,0,0-.157-.092.225.225,0,0,1-.135-.155,1,1,0,0,0,.394.2l-.288-.178L3.82,1.2c.041.012.106,0,.1-.037M.442.919.467.9l.027.01L.442.919M.531.853l-.01,0L.532.838h0ZM.75.719.793.7a.532.532,0,0,1,.058.02.608.608,0,0,1-.1,0M.936.709A.544.544,0,0,1,.863.721.615.615,0,0,1,.844.65a.094.094,0,0,0,.092.06m.28-.117a.33.33,0,0,1-.13-.079l0-.007.06-.012c.033.04.066.088.074.1M1.3.457l.012,0L1.36.488,1.3.457m.644.178A1,1,0,0,1,1.7.5l.249.131M2,.506Q1.931.439,1.87.368a.114.114,0,0,1,.092.038L2.117.55C2.076.537,2.037.523,2,.506m.567.118A.765.765,0,0,0,2.469.558l.137.083L2.564.624m.558.385q-.051-.049-.1-.1L3.048.92A.02.02,0,0,0,3.077.909l.011.014q.043.067.091.13l-.057-.044" transform="translate(10.523 1.644)" fill="#03091a"/>
                <path id="Path_137796" data-name="Path 137796" d="M0,0A.17.17,0,0,0,.046.009L0,0" transform="translate(11.899 2.332)" fill="#5d2b13"/>
                <path id="Path_137797" data-name="Path 137797" d="M.2.251.028.007C.014-.013-.009.015,0,.035L.165.286C.182.312.213.276.2.251" transform="translate(12.005 2.65)" fill="#1d6493"/>
                <path id="Path_137798" data-name="Path 137798" d="M.375.279.028,0c-.02-.016-.04.023-.02.039L.35.326C.374.346.4.3.375.279" transform="translate(11.83 2.767)" fill="#1d6493"/>
                <path id="Path_137799" data-name="Path 137799" d="M.518,0A4.894,4.894,0,0,0,0,.513C-.007.526.008.544.02.534.2.375.371.214.544.05.565.031.54-.014.518,0" transform="translate(11.674 3.174)" fill="#1d6493"/>
                <path id="Path_137800" data-name="Path 137800" d="M0,1.02c0,.026,0,.052,0,.078a.092.092,0,0,1,.013.036q.015.1.025.209,0-.167,0-.334Q.045.756.04.5c0-.165,0-.332-.02-.5C.019,0,0,0,0,.011,0,.179,0,.348.006.515s0,.337,0,.505" transform="translate(12.354 2.366)" fill="#1d6493"/>
                <path id="Path_137801" data-name="Path 137801" d="M.138.009Q.071.156,0,.3C-.01.328.023.353.034.326Q.1.177.164.03C.173.008.148-.013.138.009" transform="translate(12.482 2.601)" fill="#1d6493"/>
                <path id="Path_137802" data-name="Path 137802" d="M.22,0C.147.069.077.138.005.2-.009.218.01.243.024.23.1.163.169.1.24.031.256.016.236-.01.22,0" transform="translate(12.603 2.794)" fill="#1d6493"/>
                <path id="Path_137803" data-name="Path 137803" d="M.355,0A3.007,3.007,0,0,0,.013.059C-.009.064,0,.105.021.1A2.392,2.392,0,0,1,.353.052C.381.05.382,0,.355,0" transform="translate(12.574 3.113)" fill="#1d6493"/>
                <path id="Path_137804" data-name="Path 137804" d="M.1,0,.011.015C-.008.018,0,.053.018.051L.106.039C.126.037.119,0,.1,0" transform="translate(12.795 3.243)" fill="#1d6493"/>
                <path id="Path_137805" data-name="Path 137805" d="M.273.224.024,0C.007-.011-.01.022.007.038L.249.27C.271.291.3.244.273.224" transform="translate(12.567 3.372)" fill="#1d6493"/>
                <path id="Path_137806" data-name="Path 137806" d="M.1.155.038.013C.026-.015-.009.008,0,.037l.06.145C.075.212.115.186.1.155" transform="translate(12.666 3.663)" fill="#1d6493"/>
                <path id="Path_137807" data-name="Path 137807" d="M.087.308.034.016C.029-.011,0,0,0,.026L.044.32C.049.355.093.342.087.308" transform="translate(12.624 3.756)" fill="#1d6493"/>
                <path id="Path_137808" data-name="Path 137808" d="M.095.014,0,.391c-.008.034.034.05.042.016L.126.027C.132,0,.1-.012.095.014" transform="translate(12.31 3.615)" fill="#1d6493"/>
                <path id="Path_137809" data-name="Path 137809" d="M.151.011C.1.161.043.313,0,.469-.006.5.027.509.035.482.081.327.125.173.176.02.183,0,.158-.009.151.011" transform="translate(12.176 3.608)" fill="#1d6493"/>
                <path id="Path_137810" data-name="Path 137810" d="M.351.007a3.752,3.752,0,0,1-.344.43C-.012.458.013.491.032.472A2.957,2.957,0,0,0,.377.028C.389.008.363-.011.351.007" transform="translate(11.861 3.435)" fill="#1d6493"/>
                <path id="Path_137811" data-name="Path 137811" d="M.393.361C.3.243.216.118.12.007a.019.019,0,0,0-.032,0C.076,0,.047,0,.045.031Q.021.409,0,.786c0,.021.024.021.026,0Q.06.417.093.046c.09.116.191.221.287.33C.388.385.4.371.393.361" transform="translate(12.338 3.361)" fill="#1d6493"/>
                <path id="Path_137812" data-name="Path 137812" d="M.184.01C.116.141.056.276,0,.415,0,.428.01.44.016.427.078.293.144.161.212.032.225.009.2-.013.184.01" transform="translate(12.137 3.561)" fill="#1d6493"/>
                <path id="Path_137813" data-name="Path 137813" d="M.083,0,0,.129C0,.134,0,.142.008.137L.1.019C.105.007.091-.008.083,0" transform="translate(12.158 3.559)" fill="#1d6493"/>
                <path id="Path_137814" data-name="Path 137814" d="M.274,0,.006.195C-.007.2,0,.23.017.221L.289.039C.309.027.293-.011.274,0" transform="translate(11.86 3.181)" fill="#1d6493"/>
                <path id="Path_137815" data-name="Path 137815" d="M.15.009.01,0C0,0,0,.022.009.024l.14.018C.166.044.167.01.15.009" transform="translate(11.963 3.049)" fill="#1d6493"/>
                <path id="Path_137816" data-name="Path 137816" d="M.2.647.021.009A.011.011,0,1,0,0,.015L.172.656A.015.015,0,1,0,.2.647" transform="translate(12.114 2.43)" fill="#1d6493"/>
                <path id="Path_137817" data-name="Path 137817" d="M.059.175.017.008C.014-.005,0,0,0,.013L.04.181C.043.2.062.19.059.175" transform="translate(12.226 2.67)" fill="#1d6493"/>
                <path id="Path_137818" data-name="Path 137818" d="M.041.008C.04,0,.028,0,.027.008.019.135.015.262,0,.389c0,.022.026.024.028,0A2.4,2.4,0,0,0,.041.008" transform="translate(12.418 2.389)" fill="#1d6493"/>
                <path id="Path_137819" data-name="Path 137819" d="M.028.007,0,.188C0,.2.013.206.015.194L.042.012C.044,0,.029-.005.028.007" transform="translate(12.583 2.503)" fill="#1d6493"/>
                <path id="Path_137820" data-name="Path 137820" d="M.349.157C.244.1.137.049.029,0,0-.01-.012.043.015.055.123.1.232.145.343.18.356.184.361.163.349.157" transform="translate(12.545 3.249)" fill="#1d6493"/>
                <path id="Path_137821" data-name="Path 137821" d="M.265,0a2.977,2.977,0,0,0-.26.159c-.012.008,0,.031.01.023C.1.131.19.08.276.027.29.018.279-.006.265,0" transform="translate(12.544 2.91)" fill="#1d6493"/>
                <path id="Path_137822" data-name="Path 137822" d="M.145,0,.007.078C-.008.086,0,.116.019.106L.156.027C.17.019.159-.006.145,0" transform="translate(12.736 3.007)" fill="#1d6493"/>
                <path id="Path_137823" data-name="Path 137823" d="M.185,0,0,.2c-.01.01,0,.028.013.018L.2.028C.216.015.2-.01.185,0" transform="translate(11.935 3.404)" fill="#1d6493"/>
                <path id="Path_137824" data-name="Path 137824" d="M.736.6C.745.378.677.061.478.008A.318.318,0,0,0,.289.023.33.33,0,0,0,.173.092a.75.75,0,0,0-.165.45.785.785,0,0,0,.07.471.314.314,0,0,0,.347.159C.63,1.114.727.833.736.6" transform="translate(12.008 2.675)" fill="#5d2b13"/>
                <path id="Path_137825" data-name="Path 137825" d="M.88.342A.291.291,0,0,0,.873.273a.338.338,0,0,0-.2-.226C.458-.056.037-.005,0,.366c-.038.406.53.388.716.267A.372.372,0,0,0,.88.342" transform="translate(11.1 2.88)" fill="#fff"/>
                <path id="Path_137826" data-name="Path 137826" d="M1.891.617A4.406,4.406,0,0,1,3.27.449a1.613,1.613,0,0,1,.857.3,3.124,3.124,0,0,1,.709.751l.02-.014C4.537.9,4.128.229,3.532.043A1.459,1.459,0,0,0,3.026.005,7.22,7.22,0,0,0,.439.641.749.749,0,0,0,.116.856.454.454,0,0,0,.089.895a.575.575,0,0,0-.072.437.169.169,0,0,0,.048.088c.038.029.083,0,.121-.023A5.876,5.876,0,0,1,1.891.617" transform="translate(10.139 0.3)" fill="#03091a"/>
              </g>
            </g>
            <g id="Group_90351" data-name="Group 90351" transform="translate(7.391 5.519)">
              <g id="Mask_Group_90350" data-name="Mask Group 90350" clip-path="url(#clip-path-24)">
                <g id="Group_90349" data-name="Group 90349" transform="translate(0 0)">
                  <g id="Group_90348" data-name="Group 90348" clip-path="url(#clip-path-25)">
                    <path id="Path_137830" data-name="Path 137830" d="M6.272,4.265a2.156,2.156,0,0,1-2.53-.016A1.8,1.8,0,0,0,3.71,3.2,11.92,11.92,0,0,1,4.339.481a.646.646,0,0,1,1.248,0,23.508,23.508,0,0,1,.729,2.745,2.525,2.525,0,0,0-.045,1.041" transform="translate(-3.397 0)" fill="#ffe4d8"/>
                  </g>
                </g>
              </g>
            </g>
            <path id="Path_137832" data-name="Path 137832" d="M3782.152-19745.785a6.448,6.448,0,0,0,2.66,1.215,4.905,4.905,0,0,0,2.622-.568" transform="translate(-3776.357 19757.979)" fill="none" stroke="#ffdccb" stroke-width="1"/>
          </g>
        </g>
      </g>
    </g>
  </g>
</svg>
